<svg version="1.1" viewBox="0.0 0.0 960.0 540.0" fill="none" stroke="none" stroke-linecap="square" stroke-miterlimit="10" xmlns:xlink="http://www.w3.org/1999/xlink" xmlns="http://www.w3.org/2000/svg"><clipPath id="p.0"><path d="m0 0l960.0 0l0 540.0l-960.0 0l0 -540.0z" clip-rule="nonzero"/></clipPath><g clip-path="url(#p.0)"><path fill="#ffffff" d="m0 0l960.0 0l0 540.0l-960.0 0z" fill-rule="evenodd"/><path fill="#d9d9d9" d="m83.262314 259.93048l0 0c0 -13.359192 10.639404 -24.188965 23.763779 -24.188965l0 0c6.3025436 0 12.346954 2.5484772 16.803528 7.084793c4.4565735 4.536316 6.960251 10.688873 6.960251 17.104172l0 0c0 13.359222 -10.639404 24.188995 -23.763779 24.188995l0 0c-13.124374 0 -23.763779 -10.829773 -23.763779 -24.188995z" fill-rule="evenodd"/><path stroke="#666666" stroke-width="2.0" stroke-linejoin="round" stroke-linecap="butt" d="m83.262314 259.93048l0 0c0 -13.359192 10.639404 -24.188965 23.763779 -24.188965l0 0c6.3025436 0 12.346954 2.5484772 16.803528 7.084793c4.4565735 4.536316 6.960251 10.688873 6.960251 17.104172l0 0c0 13.359222 -10.639404 24.188995 -23.763779 24.188995l0 0c-13.124374 0 -23.763779 -10.829773 -23.763779 -24.188995z" fill-rule="evenodd"/><path fill="#000000" d="m106.963234 253.44424q1.9375 0 3.03125 1.375q1.296875 1.640625 1.296875 5.4375q0 3.796875 -1.3125 5.453125q-1.078125 1.375 -3.015625 1.375q-1.953125 0 -3.15625 -1.5q-1.1875 -1.5 -1.1875 -5.34375q0 -3.78125 1.3125 -5.4375q1.078125 -1.359375 3.03125 -1.359375zm0 2.125q-0.46875 0 -0.84375 0.296875q-0.359375 0.296875 -0.5625 1.0625q-0.25 0.984375 -0.25 3.328125q0 2.359375 0.234375 3.234375q0.234375 0.875 0.59375 1.171875q0.359375 0.296875 0.828125 0.296875q0.453125 0 0.8125 -0.296875q0.375 -0.296875 0.578125 -1.0625q0.265625 -0.984375 0.265625 -3.34375q0 -2.34375 -0.25 -3.21875q-0.234375 -0.875 -0.59375 -1.171875q-0.359375 -0.296875 -0.8125 -0.296875z" fill-rule="nonzero"/><path fill="#d9d9d9" d="m217.88567 259.93048l0 0c0 -13.359192 10.63942 -24.188965 23.763779 -24.188965l0 0c6.3025513 0 12.34697 2.5484772 16.803528 7.084793c4.4565735 4.536316 6.960266 10.688873 6.960266 17.104172l0 0c0 13.359222 -10.63942 24.188995 -23.763794 24.188995l0 0c-13.124359 0 -23.763779 -10.829773 -23.763779 -24.188995z" fill-rule="evenodd"/><path stroke="#666666" stroke-width="2.0" stroke-linejoin="round" stroke-linecap="butt" d="m217.88567 259.93048l0 0c0 -13.359192 10.63942 -24.188965 23.763779 -24.188965l0 0c6.3025513 0 12.34697 2.5484772 16.803528 7.084793c4.4565735 4.536316 6.960266 10.688873 6.960266 17.104172l0 0c0 13.359222 -10.63942 24.188995 -23.763794 24.188995l0 0c-13.124359 0 -23.763779 -10.829773 -23.763779 -24.188995z" fill-rule="evenodd"/><path fill="#000000" d="m243.80534 266.8505l-2.5625 0l0 -9.640625q-1.40625 1.3125 -3.3125 1.9375l0 -2.328125q1.015625 -0.328125 2.1875 -1.234375q1.171875 -0.921875 1.609375 -2.140625l2.078125 0l0 13.40625z" fill-rule="nonzero"/><path fill="#d9d9d9" d="m352.51166 396.8911l0 0c0 -13.359192 10.639404 -24.188965 23.763763 -24.188965l0 0c6.3025513 0 12.346985 2.548462 16.803558 7.084778c4.4565735 4.536316 6.9602356 10.688873 6.9602356 17.104187l0 0c0 13.359222 -10.639404 24.188995 -23.763794 24.188995l0 0c-13.124359 0 -23.763763 -10.829773 -23.763763 -24.188995z" fill-rule="evenodd"/><path stroke="#666666" stroke-width="2.0" stroke-linejoin="round" stroke-linecap="butt" d="m352.51166 396.8911l0 0c0 -13.359192 10.639404 -24.188965 23.763763 -24.188965l0 0c6.3025513 0 12.346985 2.548462 16.803558 7.084778c4.4565735 4.536316 6.9602356 10.688873 6.9602356 17.104187l0 0c0 13.359222 -10.639404 24.188995 -23.763794 24.188995l0 0c-13.124359 0 -23.763763 -10.829773 -23.763763 -24.188995z" fill-rule="evenodd"/><path fill="#000000" d="m376.9001 403.81113l0 -2.6875l-5.46875 0l0 -2.234375l5.796875 -8.484375l2.15625 0l0 8.46875l1.65625 0l0 2.25l-1.65625 0l0 2.6875l-2.484375 0zm0 -4.9375l0 -4.5625l-3.078125 4.5625l3.078125 0z" fill-rule="nonzero"/><path fill="#d9d9d9" d="m352.51166 260.36224l0 0c0 -13.359192 10.639404 -24.188965 23.763763 -24.188965l0 0c6.3025513 0 12.346985 2.5484772 16.803558 7.084778c4.4565735 4.536316 6.9602356 10.688873 6.9602356 17.104187l0 0c0 13.359222 -10.639404 24.188995 -23.763794 24.188995l0 0c-13.124359 0 -23.763763 -10.829773 -23.763763 -24.188995z" fill-rule="evenodd"/><path stroke="#666666" stroke-width="2.0" stroke-linejoin="round" stroke-linecap="butt" d="m352.51166 260.36224l0 0c0 -13.359192 10.639404 -24.188965 23.763763 -24.188965l0 0c6.3025513 0 12.346985 2.5484772 16.803558 7.084778c4.4565735 4.536316 6.9602356 10.688873 6.9602356 17.104187l0 0c0 13.359222 -10.639404 24.188995 -23.763794 24.188995l0 0c-13.124359 0 -23.763763 -10.829773 -23.763763 -24.188995z" fill-rule="evenodd"/><path fill="#000000" d="m371.7907 263.73538l2.46875 -0.296875q0.125 0.953125 0.640625 1.453125q0.53125 0.5 1.265625 0.5q0.78125 0 1.328125 -0.59375q0.546875 -0.609375 0.546875 -1.640625q0 -0.953125 -0.53125 -1.515625q-0.515625 -0.578125 -1.25 -0.578125q-0.5 0 -1.1875 0.203125l0.28125 -2.09375q1.046875 0.03125 1.59375 -0.4375q0.546875 -0.484375 0.546875 -1.28125q0 -0.671875 -0.40625 -1.078125q-0.390625 -0.40625 -1.0625 -0.40625q-0.65625 0 -1.125 0.46875q-0.453125 0.453125 -0.5625 1.328125l-2.359375 -0.40625q0.25 -1.203125 0.734375 -1.921875q0.5 -0.734375 1.390625 -1.140625q0.890625 -0.421875 2.0 -0.421875q1.875 0 3.015625 1.203125q0.9375 0.984375 0.9375 2.21875q0 1.765625 -1.921875 2.8125q1.15625 0.234375 1.84375 1.09375q0.6875 0.859375 0.6875 2.0625q0 1.765625 -1.296875 3.015625q-1.28125 1.234375 -3.1875 1.234375q-1.8125 0 -3.015625 -1.046875q-1.1875 -1.046875 -1.375 -2.734375z" fill-rule="nonzero"/><path fill="#d9d9d9" d="m352.51166 107.72052l0 0c0 -13.3592 10.639404 -24.188972 23.763763 -24.188972l0 0c6.3025513 0 12.346985 2.5484695 16.803558 7.0847855c4.4565735 4.5363083 6.9602356 10.688873 6.9602356 17.104187l0 0c0 13.3592 -10.639404 24.18898 -23.763794 24.18898l0 0c-13.124359 0 -23.763763 -10.829781 -23.763763 -24.18898z" fill-rule="evenodd"/><path stroke="#666666" stroke-width="2.0" stroke-linejoin="round" stroke-linecap="butt" d="m352.51166 107.72052l0 0c0 -13.3592 10.639404 -24.188972 23.763763 -24.188972l0 0c6.3025513 0 12.346985 2.5484695 16.803558 7.0847855c4.4565735 4.5363083 6.9602356 10.688873 6.9602356 17.104187l0 0c0 13.3592 -10.639404 24.18898 -23.763794 24.18898l0 0c-13.124359 0 -23.763763 -10.829781 -23.763763 -24.18898z" fill-rule="evenodd"/><path fill="#000000" d="m380.5251 112.26552l0 2.375l-8.96875 0q0.140625 -1.34375 0.859375 -2.546875q0.734375 -1.21875 2.890625 -3.203125q1.734375 -1.625 2.125 -2.1875q0.53125 -0.796875 0.53125 -1.578125q0 -0.84375 -0.46875 -1.296875q-0.453125 -0.46875 -1.265625 -0.46875q-0.796875 0 -1.28125 0.484375q-0.46875 0.46875 -0.546875 1.59375l-2.546875 -0.25q0.234375 -2.109375 1.421875 -3.03125q1.203125 -0.921875 3.015625 -0.921875q1.96875 0 3.09375 1.0625q1.140625 1.0625 1.140625 2.65625q0 0.890625 -0.328125 1.71875q-0.3125 0.8125 -1.015625 1.703125q-0.46875 0.59375 -1.6875 1.703125q-1.203125 1.109375 -1.53125 1.484375q-0.3125 0.359375 -0.515625 0.703125l5.078125 0z" fill-rule="nonzero"/><path fill="#d9d9d9" d="m483.677 316.15753l0 0c0 -13.359192 10.639404 -24.188965 23.763794 -24.188965l0 0c6.3025513 0 12.346924 2.548462 16.803528 7.084778c4.456543 4.536316 6.960266 10.688873 6.960266 17.104187l0 0c0 13.359192 -10.639404 24.188965 -23.763794 24.188965l0 0c-13.12439 0 -23.763794 -10.829773 -23.763794 -24.188965z" fill-rule="evenodd"/><path stroke="#cc0000" stroke-width="2.0" stroke-linejoin="round" stroke-linecap="butt" d="m483.677 316.15753l0 0c0 -13.359192 10.639404 -24.188965 23.763794 -24.188965l0 0c6.3025513 0 12.346924 2.548462 16.803528 7.084778c4.456543 4.536316 6.960266 10.688873 6.960266 17.104187l0 0c0 13.359192 -10.639404 24.188965 -23.763794 24.188965l0 0c-13.12439 0 -23.763794 -10.829773 -23.763794 -24.188965z" fill-rule="evenodd"/><path fill="#000000" d="m511.72168 312.9994l-2.484375 0.265625q-0.09375 -0.765625 -0.484375 -1.125q-0.375 -0.375 -0.984375 -0.375q-0.8125 0 -1.375 0.734375q-0.546875 0.734375 -0.703125 3.03125q0.96875 -1.125 2.390625 -1.125q1.59375 0 2.734375 1.21875q1.140625 1.21875 1.140625 3.15625q0 2.046875 -1.203125 3.296875q-1.1875 1.234375 -3.078125 1.234375q-2.03125 0 -3.328125 -1.578125q-1.296875 -1.578125 -1.296875 -5.15625q0 -3.671875 1.34375 -5.28125q1.359375 -1.625 3.53125 -1.625q1.53125 0 2.515625 0.859375q1.0 0.84375 1.28125 2.46875zm-5.8125 5.578125q0 1.25 0.578125 1.9375q0.578125 0.671875 1.3125 0.671875q0.71875 0 1.1875 -0.546875q0.46875 -0.5625 0.46875 -1.828125q0 -1.3125 -0.515625 -1.90625q-0.5 -0.609375 -1.265625 -0.609375q-0.734375 0 -1.25 0.578125q-0.515625 0.578125 -0.515625 1.703125z" fill-rule="nonzero"/><path fill="#d9d9d9" d="m639.6875 104.400536l0 0c0 -13.359207 10.639404 -24.18898 23.763794 -24.18898l0 0c6.3025513 0 12.346924 2.5484772 16.803528 7.0847855c4.456543 4.536316 6.960266 10.688873 6.960266 17.104195l0 0c0 13.3592 -10.639404 24.188972 -23.763794 24.188972l0 0c-13.12439 0 -23.763794 -10.829773 -23.763794 -24.188972z" fill-rule="evenodd"/><path stroke="#666666" stroke-width="2.0" stroke-linejoin="round" stroke-linecap="butt" d="m639.6875 104.400536l0 0c0 -13.359207 10.639404 -24.18898 23.763794 -24.18898l0 0c6.3025513 0 12.346924 2.5484772 16.803528 7.0847855c4.456543 4.536316 6.960266 10.688873 6.960266 17.104195l0 0c0 13.3592 -10.639404 24.188972 -23.763794 24.188972l0 0c-13.12439 0 -23.763794 -10.829773 -23.763794 -24.188972z" fill-rule="evenodd"/><path fill="#000000" d="m659.0603 100.52366l0 -2.375l8.75 0l0 1.859375q-1.078125 1.0625 -2.203125 3.0625q-1.125 1.984375 -1.71875 4.234375q-0.578125 2.25 -0.5625 4.015625l-2.46875 0q0.0625 -2.765625 1.140625 -5.640625q1.078125 -2.890625 2.875 -5.15625l-5.8125 0z" fill-rule="nonzero"/><path fill="#d9d9d9" d="m483.677 160.19034l0 0c0 -13.359207 10.639404 -24.18898 23.763794 -24.18898l0 0c6.3025513 0 12.346924 2.5484772 16.803528 7.084793c4.456543 4.536316 6.960266 10.688873 6.960266 17.104187l0 0c0 13.359207 -10.639404 24.18898 -23.763794 24.18898l0 0c-13.12439 0 -23.763794 -10.829773 -23.763794 -24.18898z" fill-rule="evenodd"/><path stroke="#666666" stroke-width="2.0" stroke-linejoin="round" stroke-linecap="butt" d="m483.677 160.19034l0 0c0 -13.359207 10.639404 -24.18898 23.763794 -24.18898l0 0c6.3025513 0 12.346924 2.5484772 16.803528 7.084793c4.456543 4.536316 6.960266 10.688873 6.960266 17.104187l0 0c0 13.359207 -10.639404 24.18898 -23.763794 24.18898l0 0c-13.12439 0 -23.763794 -10.829773 -23.763794 -24.18898z" fill-rule="evenodd"/><path fill="#000000" d="m503.08105 163.67284l2.546875 -0.265625q0.109375 0.875 0.640625 1.375q0.546875 0.5 1.25 0.5q0.796875 0 1.34375 -0.640625q0.5625 -0.65625 0.5625 -1.96875q0 -1.234375 -0.546875 -1.84375q-0.546875 -0.609375 -1.4375 -0.609375q-1.09375 0 -1.96875 0.96875l-2.078125 -0.296875l1.3125 -6.953125l6.765625 0l0 2.390625l-4.828125 0l-0.40625 2.265625q0.859375 -0.421875 1.75 -0.421875q1.703125 0 2.890625 1.25q1.1875 1.234375 1.1875 3.203125q0 1.65625 -0.953125 2.9375q-1.3125 1.78125 -3.625 1.78125q-1.84375 0 -3.015625 -1.0q-1.15625 -1.0 -1.390625 -2.671875z" fill-rule="nonzero"/><path fill="#000000" fill-opacity="0.0" d="m130.78987 259.93048l87.08661 0" fill-rule="evenodd"/><path stroke="#595959" stroke-width="2.0" stroke-linejoin="round" stroke-linecap="butt" d="m130.78987 259.93048l75.08661 0" fill-rule="evenodd"/><path fill="#595959" stroke="#595959" stroke-width="2.0" stroke-linecap="butt" d="m205.87648 263.23395l9.076187 -3.3034668l-9.076187 -3.3034668z" fill-rule="evenodd"/><path fill="#000000" fill-opacity="0.0" d="m258.45297 242.82631l101.00787 -118.015755" fill-rule="evenodd"/><path stroke="#595959" stroke-width="2.0" stroke-linejoin="round" stroke-linecap="butt" d="m258.45297 242.8263l93.20499 -108.899" fill-rule="evenodd"/><path fill="#595959" stroke="#595959" stroke-width="2.0" stroke-linecap="butt" d="m354.1677 136.07535l3.3919678 -9.043495l-8.411438 4.7473984z" fill-rule="evenodd"/><path fill="#000000" fill-opacity="0.0" d="m258.45297 277.0347l101.00787 102.74014" fill-rule="evenodd"/><path stroke="#595959" stroke-width="2.0" stroke-linejoin="round" stroke-linecap="butt" d="m258.45297 277.03467l92.595 94.183044" fill-rule="evenodd"/><path fill="#595959" stroke="#595959" stroke-width="2.0" stroke-linecap="butt" d="m348.69232 373.5337l8.7187195 4.1562195l-4.0073547 -8.788147z" fill-rule="evenodd"/><path fill="#000000" fill-opacity="0.0" d="m265.41324 259.93048l87.08661 0.4409485" fill-rule="evenodd"/><path stroke="#595959" stroke-width="2.0" stroke-linejoin="round" stroke-linecap="butt" d="m265.4132 259.93048l75.08679 0.380188" fill-rule="evenodd"/><path fill="#595959" stroke="#595959" stroke-width="2.0" stroke-linecap="butt" d="m340.48328 263.6141l9.092804 -3.2574768l-9.059357 -3.3493652z" fill-rule="evenodd"/><path fill="#000000" fill-opacity="0.0" d="m393.07898 90.61633c0 -0.6776123 28.590546 -7.02845 57.18109 -1.3552246c28.590546 5.673233 57.18109 23.37053 57.18109 46.741043" fill-rule="evenodd"/><path stroke="#595959" stroke-width="2.0" stroke-linejoin="round" stroke-linecap="butt" d="m404.83945 88.23076l0.47827148 -0.06262207c0.5784302 -0.07395935 1.1734924 -0.14642334 1.7842712 -0.21686554c1.2215271 -0.14089203 2.5058594 -0.27370453 3.8460388 -0.39411163c10.721466 -0.96326447 25.016754 -1.1326599 39.31201 1.7039566c28.590546 5.6732254 57.18112 23.370514 57.18112 46.741035" fill-rule="evenodd"/><path fill="#595959" stroke="#595959" stroke-width="2.0" stroke-linecap="butt" d="m404.1827 84.993225l-8.238312 5.041855l9.551758 1.433197z" fill-rule="evenodd"/><path fill="#000000" fill-opacity="0.0" d="m393.07898 124.82471c0 17.685043 45.29132 35.370087 90.58267 35.370087" fill-rule="evenodd"/><path stroke="#595959" stroke-width="2.0" stroke-linejoin="round" stroke-linecap="butt" d="m393.07895 124.824715c0 8.842522 11.322845 17.685036 28.307068 24.316933c8.492126 3.3159332 18.399628 6.0792236 29.01477 8.013519c5.3075867 0.9671631 10.792084 1.727066 16.365051 2.2451782c1.3932495 0.12953186 2.7919922 0.24395752 4.194916 0.3427124l0.7076721 0.047805786" fill-rule="evenodd"/><path fill="#595959" stroke="#595959" stroke-width="2.0" stroke-linecap="butt" d="m471.55722 163.09245l9.182251 -2.9960785l-8.959839 -3.6071014z" fill-rule="evenodd"/><path fill="#000000" fill-opacity="0.0" d="m364.29727 417.62375c-1.4422607 5.871399 -10.454071 26.877533 -8.653534 35.228363c1.8005066 8.35083 12.863953 14.71347 19.456696 14.876617c6.5927124 0.16317749 17.902863 -5.401123 20.099731 -13.897614c2.1968384 -8.496521 -5.7655334 -30.901154 -6.91864 -37.08139" fill-rule="evenodd"/><path stroke="#595959" stroke-width="2.0" stroke-linejoin="round" stroke-linecap="butt" d="m364.29727 417.62378c-1.4422302 5.8713684 -10.454041 26.877502 -8.653534 35.228333c1.8005371 8.3508 12.863922 14.71347 19.456696 14.876648c6.5927124 0.16314697 17.902893 -5.4011536 20.099731 -13.897644c1.0984192 -4.2482605 -0.34295654 -11.973541 -2.203064 -19.409271c-0.46502686 -1.8589783 -0.9562683 -3.6997986 -1.4405212 -5.4637146l-0.17047119 -0.61691284" fill-rule="evenodd"/><path fill="#595959" stroke="#595959" stroke-width="2.0" stroke-linecap="butt" d="m394.57712 427.48654l-5.539154 -7.9125366l-0.8428345 9.621857z" fill-rule="evenodd"/><path fill="#000000" fill-opacity="0.0" d="m507.4408 184.37932l0 107.59056" fill-rule="evenodd"/><path stroke="#595959" stroke-width="2.0" stroke-linejoin="round" stroke-linecap="butt" d="m507.4408 184.3793l0 95.590546" fill-rule="evenodd"/><path fill="#595959" stroke="#595959" stroke-width="2.0" stroke-linecap="butt" d="m504.13733 279.96985l3.3034668 9.076202l3.3034363 -9.076202z" fill-rule="evenodd"/><path fill="#000000" fill-opacity="0.0" d="m393.07898 243.25806l97.543304 -65.95274" fill-rule="evenodd"/><path stroke="#595959" stroke-width="2.0" stroke-linejoin="round" stroke-linecap="butt" d="m393.07895 243.25806l87.602356 -59.231323" fill-rule="evenodd"/><path fill="#595959" stroke="#595959" stroke-width="2.0" stroke-linecap="butt" d="m482.53165 186.76338l5.6684875 -7.820404l-9.369141 2.3471375z" fill-rule="evenodd"/><path fill="#000000" fill-opacity="0.0" d="m393.07898 379.78693l97.543304 -46.519684" fill-rule="evenodd"/><path stroke="#595959" stroke-width="2.0" stroke-linejoin="round" stroke-linecap="butt" d="m393.07895 379.78696l86.712006 -41.354126" fill-rule="evenodd"/><path fill="#595959" stroke="#595959" stroke-width="2.0" stroke-linecap="butt" d="m481.21298 341.41455l6.770233 -6.8887024l-9.614288 0.92526245z" fill-rule="evenodd"/><path fill="#000000" fill-opacity="0.0" d="m531.2046 160.19034l108.47241 -55.779526" fill-rule="evenodd"/><path stroke="#595959" stroke-width="2.0" stroke-linejoin="round" stroke-linecap="butt" d="m531.2046 160.19034l97.80072 -50.29184" fill-rule="evenodd"/><path fill="#595959" stroke="#595959" stroke-width="2.0" stroke-linecap="butt" d="m630.516 112.836296l6.560852 -7.0884094l-9.582275 1.2128143z" fill-rule="evenodd"/><path fill="#d9d9d9" d="m640.2702 251.85963l0 0c0 -13.359207 10.639404 -24.18898 23.763733 -24.18898l0 0c6.3025513 0 12.346985 2.5484772 16.803589 7.084778c4.456543 4.536316 6.960205 10.688873 6.960205 17.104202l0 0c0 13.359207 -10.639404 24.18898 -23.763794 24.18898l0 0c-13.124329 0 -23.763733 -10.829773 -23.763733 -24.18898z" fill-rule="evenodd"/><path stroke="#cc0000" stroke-width="2.0" stroke-linejoin="round" stroke-linecap="butt" d="m640.2702 251.85963l0 0c0 -13.359207 10.639404 -24.18898 23.763733 -24.18898l0 0c6.3025513 0 12.346985 2.5484772 16.803589 7.084778c4.456543 4.536316 6.960205 10.688873 6.960205 17.104202l0 0c0 13.359207 -10.639404 24.18898 -23.763794 24.18898l0 0c-13.124329 0 -23.763733 -10.829773 -23.763733 -24.18898z" fill-rule="evenodd"/><path fill="#000000" d="m661.8305 251.5765q-0.984375 -0.421875 -1.4375 -1.15625q-0.453125 -0.734375 -0.453125 -1.609375q0 -1.484375 1.03125 -2.453125q1.046875 -0.984375 2.96875 -0.984375q1.90625 0 2.953125 0.984375q1.0625 0.96875 1.0625 2.453125q0 0.9375 -0.484375 1.65625q-0.484375 0.71875 -1.359375 1.109375q1.109375 0.4375 1.6875 1.296875q0.578125 0.859375 0.578125 1.984375q0 1.84375 -1.1875 3.0q-1.171875 1.15625 -3.125 1.15625q-1.828125 0 -3.03125 -0.953125q-1.4375 -1.125 -1.4375 -3.09375q0 -1.09375 0.53125 -2.0q0.546875 -0.90625 1.703125 -1.390625zm0.53125 -2.578125q0 0.765625 0.421875 1.203125q0.4375 0.421875 1.15625 0.421875q0.734375 0 1.171875 -0.4375q0.4375 -0.4375 0.4375 -1.203125q0 -0.71875 -0.4375 -1.140625q-0.421875 -0.4375 -1.140625 -0.4375q-0.734375 0 -1.171875 0.4375q-0.4375 0.4375 -0.4375 1.15625zm-0.234375 5.71875q0 1.0625 0.53125 1.65625q0.546875 0.578125 1.359375 0.578125q0.796875 0 1.3125 -0.5625q0.515625 -0.5625 0.515625 -1.640625q0 -0.9375 -0.53125 -1.5q-0.515625 -0.578125 -1.328125 -0.578125q-0.9375 0 -1.40625 0.65625q-0.453125 0.640625 -0.453125 1.390625z" fill-rule="nonzero"/><path fill="#d9d9d9" d="m640.2702 403.08273l0 0c0 -13.359222 10.639404 -24.188995 23.763733 -24.188995l0 0c6.3025513 0 12.346985 2.5484924 16.803589 7.0848083c4.456543 4.536316 6.960205 10.688873 6.960205 17.104187l0 0c0 13.359192 -10.639404 24.188965 -23.763794 24.188965l0 0c-13.124329 0 -23.763733 -10.829773 -23.763733 -24.188965z" fill-rule="evenodd"/><path stroke="#cc0000" stroke-width="2.0" stroke-linejoin="round" stroke-linecap="butt" d="m640.2702 403.08273l0 0c0 -13.359222 10.639404 -24.188995 23.763733 -24.188995l0 0c6.3025513 0 12.346985 2.5484924 16.803589 7.0848083c4.456543 4.536316 6.960205 10.688873 6.960205 17.104187l0 0c0 13.359192 -10.639404 24.188965 -23.763794 24.188965l0 0c-13.124329 0 -23.763733 -10.829773 -23.763733 -24.188965z" fill-rule="evenodd"/><path fill="#000000" d="m659.6899 406.90897l2.484375 -0.265625q0.09375 0.75 0.46875 1.125q0.390625 0.359375 1.015625 0.359375q0.796875 0 1.34375 -0.71875q0.5625 -0.734375 0.71875 -3.03125q-0.96875 1.109375 -2.421875 1.109375q-1.578125 0 -2.71875 -1.203125q-1.140625 -1.21875 -1.140625 -3.171875q0 -2.03125 1.203125 -3.265625q1.203125 -1.25 3.078125 -1.25q2.03125 0 3.328125 1.578125q1.3125 1.5625 1.3125 5.15625q0 3.671875 -1.359375 5.296875q-1.359375 1.609375 -3.53125 1.609375q-1.578125 0 -2.546875 -0.828125q-0.953125 -0.84375 -1.234375 -2.5zm5.796875 -5.59375q0 -1.234375 -0.578125 -1.90625q-0.5625 -0.6875 -1.3125 -0.6875q-0.703125 0 -1.171875 0.5625q-0.46875 0.546875 -0.46875 1.828125q0 1.296875 0.5 1.90625q0.515625 0.59375 1.28125 0.59375q0.734375 0 1.234375 -0.578125q0.515625 -0.578125 0.515625 -1.71875z" fill-rule="nonzero"/><path fill="#d9d9d9" d="m796.86334 183.81763l0 0c0 -13.359192 10.639404 -24.188965 23.763794 -24.188965l0 0c6.3025513 0 12.346985 2.548462 16.803528 7.084778c4.456604 4.536316 6.960266 10.688873 6.960266 17.104187l0 0c0 13.359207 -10.639404 24.18898 -23.763794 24.18898l0 0c-13.12439 0 -23.763794 -10.829773 -23.763794 -24.18898z" fill-rule="evenodd"/><path stroke="#cc0000" stroke-width="2.0" stroke-linejoin="round" stroke-linecap="butt" d="m796.86334 183.81763l0 0c0 -13.359192 10.639404 -24.188965 23.763794 -24.188965l0 0c6.3025513 0 12.346985 2.548462 16.803528 7.084778c4.456604 4.536316 6.960266 10.688873 6.960266 17.104187l0 0c0 13.359207 -10.639404 24.18898 -23.763794 24.18898l0 0c-13.12439 0 -23.763794 -10.829773 -23.763794 -24.18898z" fill-rule="evenodd"/><path fill="#000000" d="m817.59515 190.73763l-2.5625 0l0 -9.640625q-1.40625 1.3125 -3.3125 1.9375l0 -2.328125q1.015625 -0.328125 2.1875 -1.234375q1.171875 -0.921875 1.609375 -2.140625l2.078125 0l0 13.40625zm8.156982 -13.40625q1.9375 0 3.03125 1.375q1.296875 1.640625 1.296875 5.4375q0 3.796875 -1.3125 5.453125q-1.078125 1.375 -3.015625 1.375q-1.953125 0 -3.15625 -1.5q-1.1875 -1.5 -1.1875 -5.34375q0 -3.78125 1.3125 -5.4375q1.078125 -1.359375 3.03125 -1.359375zm0 2.125q-0.46875 0 -0.84375 0.296875q-0.359375 0.296875 -0.5625 1.0625q-0.25 0.984375 -0.25 3.328125q0 2.359375 0.234375 3.234375q0.234375 0.875 0.59375 1.171875q0.359375 0.296875 0.828125 0.296875q0.453125 0 0.8125 -0.296875q0.375 -0.296875 0.578125 -1.0625q0.265625 -0.984375 0.265625 -3.34375q0 -2.34375 -0.25 -3.21875q-0.234375 -0.875 -0.59375 -1.171875q-0.359375 -0.296875 -0.8125 -0.296875z" fill-rule="nonzero"/><path fill="#d9d9d9" d="m796.86334 327.47644l0 0c0 -13.359222 10.639404 -24.188995 23.763794 -24.188995l0 0c6.3025513 0 12.346985 2.5484924 16.803528 7.084778c4.456604 4.536316 6.960266 10.688873 6.960266 17.104218l0 0c0 13.359192 -10.639404 24.188965 -23.763794 24.188965l0 0c-13.12439 0 -23.763794 -10.829773 -23.763794 -24.188965z" fill-rule="evenodd"/><path stroke="#666666" stroke-width="2.0" stroke-linejoin="round" stroke-linecap="butt" d="m796.86334 327.47644l0 0c0 -13.359222 10.639404 -24.188995 23.763794 -24.188995l0 0c6.3025513 0 12.346985 2.5484924 16.803528 7.084778c4.456604 4.536316 6.960266 10.688873 6.960266 17.104218l0 0c0 13.359192 -10.639404 24.188965 -23.763794 24.188965l0 0c-13.12439 0 -23.763794 -10.829773 -23.763794 -24.188965z" fill-rule="evenodd"/><path fill="#000000" d="m818.11017 334.39642l-2.5625 0l0 -9.640625q-1.40625 1.3125 -3.3125 1.9375l0 -2.328125q1.015625 -0.328125 2.1875 -1.234375q1.171875 -0.921875 1.609375 -2.140625l2.078125 0l0 13.40625zm9.345764 0l-2.5625 0l0 -9.640625q-1.40625 1.3125 -3.3125 1.9375l0 -2.328125q1.015625 -0.328125 2.1875 -1.234375q1.171875 -0.921875 1.609375 -2.140625l2.078125 0l0 13.40625z" fill-rule="nonzero"/><path fill="#000000" fill-opacity="0.0" d="m524.2443 333.26172l116.031494 69.82678" fill-rule="evenodd"/><path stroke="#cc0000" stroke-width="2.0" stroke-linejoin="round" stroke-linecap="butt" d="m524.2443 333.26172l105.749695 63.639282" fill-rule="evenodd"/><path fill="#cc0000" stroke="#cc0000" stroke-width="2.0" stroke-linecap="butt" d="m628.29065 399.73148l9.47998 1.8494263l-6.073242 -7.5103455z" fill-rule="evenodd"/><path fill="#000000" fill-opacity="0.0" d="m663.4513 128.58951l0.5984497 99.08661" fill-rule="evenodd"/><path stroke="#595959" stroke-width="2.0" stroke-linejoin="round" stroke-linecap="butt" d="m663.4513 128.58951l0.52593994 87.08684" fill-rule="evenodd"/><path fill="#595959" stroke="#595959" stroke-width="2.0" stroke-linecap="butt" d="m660.6738 215.69629l3.3582153 9.056076l3.2485962 -9.095978z" fill-rule="evenodd"/><path fill="#000000" fill-opacity="0.0" d="m647.2304 268.9638l-116.031494 47.18112" fill-rule="evenodd"/><path stroke="#cc0000" stroke-width="2.0" stroke-linejoin="round" stroke-linecap="butt" d="m647.2304 268.9638l-104.915344 42.66101" fill-rule="evenodd"/><path fill="#cc0000" stroke="#cc0000" stroke-width="2.0" stroke-linecap="butt" d="m541.07074 308.56467l-7.16333 6.4789124l9.652039 -0.35861206z" fill-rule="evenodd"/><path fill="#000000" fill-opacity="0.0" d="m664.03394 378.89374l0 -102.834625" fill-rule="evenodd"/><path stroke="#cc0000" stroke-width="2.0" stroke-linejoin="round" stroke-linecap="butt" d="m664.03394 378.89374l0 -90.834656" fill-rule="evenodd"/><path fill="#cc0000" stroke="#cc0000" stroke-width="2.0" stroke-linecap="butt" d="m667.3374 288.05908l-3.3034668 -9.076172l-3.3034668 9.076172z" fill-rule="evenodd"/><path fill="#000000" fill-opacity="0.0" d="m687.2151 104.400536l116.59839 62.299202" fill-rule="evenodd"/><path stroke="#595959" stroke-width="2.0" stroke-linejoin="round" stroke-linecap="butt" d="m687.2151 104.40053l106.014404 56.64415" fill-rule="evenodd"/><path fill="#595959" stroke="#595959" stroke-width="2.0" stroke-linecap="butt" d="m791.6727 163.95831l9.561951 1.3635712l-6.4483643 -7.190857z" fill-rule="evenodd"/><path fill="#000000" fill-opacity="0.0" d="m376.27542 372.70215l0 -88.15747" fill-rule="evenodd"/><path stroke="#595959" stroke-width="2.0" stroke-linejoin="round" stroke-linecap="butt" d="m376.27542 372.70215l0 -76.1575" fill-rule="evenodd"/><path fill="#595959" stroke="#595959" stroke-width="2.0" stroke-linecap="butt" d="m379.5789 296.54465l-3.3034668 -9.076172l-3.3034668 9.076172z" fill-rule="evenodd"/><path fill="#000000" fill-opacity="0.0" d="m808.5652 204.33583c-1.4422607 5.871399 -10.454102 26.877518 -8.653564 35.228348c1.8005371 8.35083 12.863953 14.71347 19.456665 14.876648c6.5927734 0.16316223 17.902893 -5.4011383 20.099731 -13.897644c2.1968994 -8.496506 -5.765503 -30.901138 -6.918579 -37.08136" fill-rule="evenodd"/><path stroke="#cc0000" stroke-width="2.0" stroke-linejoin="round" stroke-linecap="butt" d="m808.5651 204.33583c-1.4422607 5.871399 -10.454041 26.877533 -8.653564 35.228348c1.8005371 8.35083 12.864014 14.713486 19.456726 14.876648c6.5927734 0.16316223 17.902893 -5.4011536 20.099731 -13.897644c1.0984497 -4.24823 -0.34295654 -11.973526 -2.203064 -19.409286c-0.4650879 -1.8589478 -0.9562378 -3.6997833 -1.4404907 -5.463669l-0.17053223 -0.6169739" fill-rule="evenodd"/><path fill="#cc0000" stroke="#cc0000" stroke-width="2.0" stroke-linecap="butt" d="m838.845 214.1986l-5.5391846 -7.9125214l-0.8428345 9.621841z" fill-rule="evenodd"/><path fill="#000000" fill-opacity="0.0" d="m154.75603 229.01746l25.070877 0l0 38.771667l-25.070877 0z" fill-rule="evenodd"/><path fill="#000000" d="m169.72478 253.37746l-1.40625 0l0 -8.96875q-0.515625 0.484375 -1.34375 0.96875q-0.8125 0.484375 -1.46875 0.734375l0 -1.359375q1.171875 -0.5625 2.046875 -1.34375q0.890625 -0.796875 1.265625 -1.53125l0.90625 0l0 11.5z" fill-rule="nonzero"/><path fill="#000000" fill-opacity="0.0" d="m403.39688 142.74564l25.070892 0l0 38.771652l-25.070892 0z" fill-rule="evenodd"/><path fill="#000000" d="m420.45938 165.74626l0 1.359375l-7.578125 0q-0.015625 -0.515625 0.171875 -0.984375q0.28125 -0.765625 0.921875 -1.515625q0.640625 -0.75 1.84375 -1.734375q1.859375 -1.53125 2.515625 -2.421875q0.65625 -0.90625 0.65625 -1.703125q0 -0.828125 -0.59375 -1.40625q-0.59375 -0.578125 -1.5625 -0.578125q-1.015625 0 -1.625 0.609375q-0.609375 0.609375 -0.609375 1.6875l-1.453125 -0.140625q0.15625 -1.625 1.125 -2.46875q0.96875 -0.84375 2.59375 -0.84375q1.65625 0 2.609375 0.921875q0.96875 0.90625 0.96875 2.25q0 0.6875 -0.28125 1.359375q-0.28125 0.65625 -0.9375 1.390625q-0.65625 0.734375 -2.171875 2.015625q-1.265625 1.0625 -1.625 1.453125q-0.359375 0.375 -0.59375 0.75l5.625 0z" fill-rule="nonzero"/><path fill="#000000" fill-opacity="0.0" d="m454.21237 61.017456l25.070862 0l0 38.771652l-25.070862 0z" fill-rule="evenodd"/><path fill="#000000" d="m469.18112 85.37746l-1.40625 0l0 -8.96875q-0.515625 0.484375 -1.34375 0.96875q-0.8125 0.484375 -1.46875 0.734375l0 -1.359375q1.171875 -0.5625 2.046875 -1.34375q0.890625 -0.796875 1.265625 -1.53125l0.90625 0l0 11.5z" fill-rule="nonzero"/><path fill="#000000" fill-opacity="0.0" d="m290.75604 229.01746l25.070862 0l0 38.771667l-25.070862 0z" fill-rule="evenodd"/><path fill="#000000" d="m304.92792 253.37746l0 -2.75l-4.96875 0l0 -1.28125l5.234375 -7.421875l1.140625 0l0 7.421875l1.546875 0l0 1.28125l-1.546875 0l0 2.75l-1.40625 0zm0 -4.03125l0 -5.171875l-3.578125 5.171875l3.578125 0z" fill-rule="nonzero"/><path fill="#000000" fill-opacity="0.0" d="m283.62012 154.87164l25.070862 0l0 38.771652l-25.070862 0z" fill-rule="evenodd"/><path fill="#000000" d="m295.44824 173.0129q-0.875 -0.3125 -1.296875 -0.90625q-0.421875 -0.59375 -0.421875 -1.421875q0 -1.25 0.890625 -2.09375q0.90625 -0.859375 2.40625 -0.859375q1.5 0 2.40625 0.875q0.921875 0.859375 0.921875 2.109375q0 0.796875 -0.421875 1.390625q-0.421875 0.59375 -1.265625 0.90625q1.046875 0.34375 1.59375 1.109375q0.5625 0.765625 0.5625 1.828125q0 1.46875 -1.046875 2.484375q-1.03125 1.0 -2.734375 1.0q-1.6875 0 -2.734375 -1.0q-1.03125 -1.015625 -1.03125 -2.515625q0 -1.125 0.5625 -1.875q0.5625 -0.75 1.609375 -1.03125zm-0.28125 -2.375q0 0.8125 0.515625 1.328125q0.53125 0.515625 1.375 0.515625q0.8125 0 1.328125 -0.515625q0.515625 -0.515625 0.515625 -1.25q0 -0.78125 -0.53125 -1.296875q-0.53125 -0.53125 -1.328125 -0.53125q-0.8125 0 -1.34375 0.515625q-0.53125 0.515625 -0.53125 1.234375zm-0.453125 5.28125q0 0.609375 0.28125 1.171875q0.296875 0.5625 0.859375 0.875q0.5625 0.296875 1.203125 0.296875q1.015625 0 1.671875 -0.640625q0.65625 -0.65625 0.65625 -1.65625q0 -1.015625 -0.6875 -1.671875q-0.671875 -0.671875 -1.6875 -0.671875q-0.984375 0 -1.640625 0.65625q-0.65625 0.65625 -0.65625 1.640625z" fill-rule="nonzero"/><path fill="#000000" fill-opacity="0.0" d="m327.94055 419.28928l25.070862 0l0 38.771667l-25.070862 0z" fill-rule="evenodd"/><path fill="#000000" d="m337.61243 440.61804l1.40625 -0.1875q0.25 1.203125 0.828125 1.734375q0.578125 0.515625 1.421875 0.515625q0.984375 0 1.671875 -0.6875q0.6875 -0.6875 0.6875 -1.703125q0 -0.96875 -0.640625 -1.59375q-0.625 -0.625 -1.609375 -0.625q-0.390625 0 -0.984375 0.15625l0.15625 -1.234375q0.140625 0.015625 0.21875 0.015625q0.90625 0 1.625 -0.46875q0.71875 -0.46875 0.71875 -1.453125q0 -0.765625 -0.53125 -1.265625q-0.515625 -0.515625 -1.34375 -0.515625q-0.828125 0 -1.375 0.515625q-0.546875 0.515625 -0.703125 1.546875l-1.40625 -0.25q0.265625 -1.421875 1.171875 -2.1875q0.921875 -0.78125 2.28125 -0.78125q0.9375 0 1.71875 0.40625q0.796875 0.390625 1.203125 1.09375q0.421875 0.6875 0.421875 1.46875q0 0.75 -0.40625 1.359375q-0.390625 0.609375 -1.171875 0.96875q1.015625 0.234375 1.578125 0.96875q0.5625 0.734375 0.5625 1.84375q0 1.5 -1.09375 2.546875q-1.09375 1.046875 -2.765625 1.046875q-1.5 0 -2.5 -0.890625q-1.0 -0.90625 -1.140625 -2.34375z" fill-rule="nonzero"/><path fill="#000000" fill-opacity="0.0" d="m275.62012 314.4252l25.070862 0l0 38.771637l-25.070862 0z" fill-rule="evenodd"/><path fill="#000000" d="m290.58887 338.7852l-1.40625 0l0 -8.96875q-0.515625 0.484375 -1.34375 0.96875q-0.8125 0.484375 -1.46875 0.734375l0 -1.359375q1.171875 -0.5625 2.046875 -1.34375q0.890625 -0.796875 1.265625 -1.53125l0.90625 0l0 11.5z" fill-rule="nonzero"/><path fill="#000000" fill-opacity="0.0" d="m429.12506 204.3478l25.070862 0l0 38.771652l-25.070862 0z" fill-rule="evenodd"/><path fill="#000000" d="m446.18756 227.34842l0 1.359375l-7.578125 0q-0.015625 -0.515625 0.171875 -0.984375q0.28125 -0.765625 0.921875 -1.515625q0.640625 -0.75 1.84375 -1.734375q1.859375 -1.53125 2.515625 -2.421875q0.65625 -0.90625 0.65625 -1.703125q0 -0.828125 -0.59375 -1.40625q-0.59375 -0.578125 -1.5625 -0.578125q-1.015625 0 -1.625 0.609375q-0.609375 0.609375 -0.609375 1.6875l-1.453125 -0.140625q0.15625 -1.625 1.125 -2.46875q0.96875 -0.84375 2.59375 -0.84375q1.65625 0 2.609375 0.921875q0.96875 0.90625 0.96875 2.25q0 0.6875 -0.28125 1.359375q-0.28125 0.65625 -0.9375 1.390625q-0.65625 0.734375 -2.171875 2.015625q-1.265625 1.0625 -1.625 1.453125q-0.359375 0.375 -0.59375 0.75l5.625 0z" fill-rule="nonzero"/><path fill="#000000" fill-opacity="0.0" d="m373.5715 311.6097l25.070862 0l0 38.771667l-25.070862 0z" fill-rule="evenodd"/><path fill="#000000" d="m390.634 334.61035l0 1.359375l-7.578125 0q-0.015625 -0.515625 0.171875 -0.984375q0.28125 -0.765625 0.921875 -1.515625q0.640625 -0.75 1.84375 -1.734375q1.859375 -1.53125 2.515625 -2.421875q0.65625 -0.90625 0.65625 -1.703125q0 -0.828125 -0.59375 -1.40625q-0.59375 -0.578125 -1.5625 -0.578125q-1.015625 0 -1.625 0.609375q-0.609375 0.609375 -0.609375 1.6875l-1.453125 -0.140625q0.15625 -1.625 1.125 -2.46875q0.96875 -0.84375 2.59375 -0.84375q1.65625 0 2.609375 0.921875q0.96875 0.90625 0.96875 2.25q0 0.6875 -0.28125 1.359375q-0.28125 0.65625 -0.9375 1.390625q-0.65625 0.734375 -2.171875 2.015625q-1.265625 1.0625 -1.625 1.453125q-0.359375 0.375 -0.59375 0.75l5.625 0z" fill-rule="nonzero"/><path fill="#000000" fill-opacity="0.0" d="m561.02783 100.153366l25.070923 0l0 38.771652l-25.070923 0z" fill-rule="evenodd"/><path fill="#000000" d="m578.09033 123.15399l0 1.359375l-7.578125 0q-0.015625 -0.515625 0.171875 -0.984375q0.28125 -0.765625 0.921875 -1.515625q0.640625 -0.75 1.84375 -1.734375q1.859375 -1.53125 2.515625 -2.421875q0.65625 -0.90625 0.65625 -1.703125q0 -0.828125 -0.59375 -1.40625q-0.59375 -0.578125 -1.5625 -0.578125q-1.015625 0 -1.625 0.609375q-0.609375 0.609375 -0.609375 1.6875l-1.453125 -0.140625q0.15625 -1.625 1.125 -2.46875q0.96875 -0.84375 2.59375 -0.84375q1.65625 0 2.609375 0.921875q0.96875 0.90625 0.96875 2.25q0 0.6875 -0.28125 1.359375q-0.28125 0.65625 -0.9375 1.390625q-0.65625 0.734375 -2.171875 2.015625q-1.265625 1.0625 -1.625 1.453125q-0.359375 0.375 -0.59375 0.75l5.625 0z" fill-rule="nonzero"/><path fill="#000000" fill-opacity="0.0" d="m503.94055 212.15337l25.070862 0l0 38.771652l-25.070862 0z" fill-rule="evenodd"/><path fill="#000000" d="m518.9093 236.51337l-1.40625 0l0 -8.96875q-0.515625 0.484375 -1.34375 0.96875q-0.8125 0.484375 -1.46875 0.734375l0 -1.359375q1.171875 -0.5625 2.046875 -1.34375q0.890625 -0.796875 1.265625 -1.53125l0.90625 0l0 11.5z" fill-rule="nonzero"/><path fill="#000000" fill-opacity="0.0" d="m578.53284 256.69702l25.070862 0l0 38.771667l-25.070862 0z" fill-rule="evenodd"/><path fill="#000000" d="m588.2047 278.0258l1.40625 -0.1875q0.25 1.203125 0.828125 1.734375q0.578125 0.515625 1.421875 0.515625q0.984375 0 1.671875 -0.6875q0.6875 -0.6875 0.6875 -1.703125q0 -0.96875 -0.640625 -1.59375q-0.625 -0.625 -1.609375 -0.625q-0.390625 0 -0.984375 0.15625l0.15625 -1.234375q0.140625 0.015625 0.21875 0.015625q0.90625 0 1.625 -0.46875q0.71875 -0.46875 0.71875 -1.453125q0 -0.765625 -0.53125 -1.265625q-0.515625 -0.515625 -1.34375 -0.515625q-0.828125 0 -1.375 0.515625q-0.546875 0.515625 -0.703125 1.546875l-1.40625 -0.25q0.265625 -1.421875 1.171875 -2.1875q0.921875 -0.78125 2.28125 -0.78125q0.9375 0 1.71875 0.40625q0.796875 0.390625 1.203125 1.09375q0.421875 0.6875 0.421875 1.46875q0 0.75 -0.40625 1.359375q-0.390625 0.609375 -1.171875 0.96875q1.015625 0.234375 1.578125 0.96875q0.5625 0.734375 0.5625 1.84375q0 1.5 -1.09375 2.546875q-1.09375 1.046875 -2.765625 1.046875q-1.5 0 -2.5 -0.890625q-1.0 -0.90625 -1.140625 -2.34375z" fill-rule="nonzero"/><path fill="#000000" fill-opacity="0.0" d="m557.12506 359.19208l25.070862 0l0 38.771637l-25.070862 0z" fill-rule="evenodd"/><path fill="#000000" d="m572.0938 383.55206l-1.40625 0l0 -8.96875q-0.515625 0.484375 -1.34375 0.96875q-0.8125 0.484375 -1.46875 0.734375l0 -1.359375q1.171875 -0.5625 2.046875 -1.34375q0.890625 -0.796875 1.265625 -1.53125l0.90625 0l0 11.5z" fill-rule="nonzero"/><path fill="#000000" fill-opacity="0.0" d="m660.26056 310.74677l40.188965 0l0 38.771667l-40.188965 0z" fill-rule="evenodd"/><path fill="#000000" d="m669.7762 331.66928l0 -1.421875l4.3125 0l0 1.421875l-4.3125 0zm12.78125 -5.21875l-1.40625 0.109375q-0.1875 -0.828125 -0.53125 -1.203125q-0.5625 -0.59375 -1.40625 -0.59375q-0.671875 0 -1.171875 0.375q-0.671875 0.484375 -1.0625 1.421875q-0.375 0.921875 -0.390625 2.640625q0.515625 -0.78125 1.25 -1.15625q0.734375 -0.375 1.53125 -0.375q1.40625 0 2.390625 1.046875q1.0 1.03125 1.0 2.671875q0 1.078125 -0.46875 2.0q-0.46875 0.921875 -1.28125 1.421875q-0.8125 0.5 -1.84375 0.5q-1.75 0 -2.859375 -1.296875q-1.109375 -1.296875 -1.109375 -4.265625q0 -3.328125 1.21875 -4.828125q1.078125 -1.3125 2.890625 -1.3125q1.34375 0 2.203125 0.765625q0.875 0.75 1.046875 2.078125zm-5.75 4.9375q0 0.734375 0.3125 1.40625q0.3125 0.65625 0.859375 1.0q0.5625 0.34375 1.171875 0.34375q0.890625 0 1.53125 -0.71875q0.640625 -0.71875 0.640625 -1.953125q0 -1.1875 -0.640625 -1.859375q-0.625 -0.6875 -1.59375 -0.6875q-0.953125 0 -1.625 0.6875q-0.65625 0.671875 -0.65625 1.78125z" fill-rule="nonzero"/><path fill="#000000" fill-opacity="0.0" d="m660.261 158.74564l25.070862 0l0 38.771652l-25.070862 0z" fill-rule="evenodd"/><path fill="#000000" d="m675.22974 183.10564l-1.40625 0l0 -8.96875q-0.515625 0.484375 -1.34375 0.96875q-0.8125 0.484375 -1.46875 0.734375l0 -1.359375q1.171875 -0.5625 2.046875 -1.34375q0.890625 -0.796875 1.265625 -1.53125l0.90625 0l0 11.5z" fill-rule="nonzero"/><path fill="#000000" fill-opacity="0.0" d="m735.71735 100.153366l25.070862 0l0 38.771652l-25.070862 0z" fill-rule="evenodd"/><path fill="#000000" d="m750.6861 124.51337l-1.40625 0l0 -8.96875q-0.515625 0.484375 -1.34375 0.96875q-0.8125 0.484375 -1.46875 0.734375l0 -1.359375q1.171875 -0.5625 2.046875 -1.34375q0.890625 -0.796875 1.265625 -1.53125l0.90625 0l0 11.5z" fill-rule="nonzero"/><path fill="#000000" fill-opacity="0.0" d="m767.7193 207.83145l35.24408 0l0 38.771652l-35.24408 0z" fill-rule="evenodd"/><path fill="#000000" d="m777.2349 228.75395l0 -1.421875l4.3125 0l0 1.421875l-4.3125 0zm10.78125 3.4375l-1.40625 0l0 -8.96875q-0.515625 0.484375 -1.34375 0.96875q-0.8125 0.484375 -1.46875 0.734375l0 -1.359375q1.171875 -0.5625 2.046875 -1.34375q0.890625 -0.796875 1.265625 -1.53125l0.90625 0l0 11.5z" fill-rule="nonzero"/><path fill="#000000" fill-opacity="0.0" d="m432.80463 349.2407l25.070862 0l0 38.771637l-25.070862 0z" fill-rule="evenodd"/><path fill="#000000" d="m449.77338 364.94443l-1.40625 0.109375q-0.1875 -0.828125 -0.53125 -1.203125q-0.5625 -0.59375 -1.40625 -0.59375q-0.671875 0 -1.171875 0.375q-0.671875 0.484375 -1.0625 1.421875q-0.375 0.921875 -0.390625 2.640625q0.515625 -0.78125 1.25 -1.15625q0.734375 -0.375 1.53125 -0.375q1.40625 0 2.390625 1.046875q1.0 1.03125 1.0 2.671875q0 1.078125 -0.46875 2.0q-0.46875 0.921875 -1.28125 1.421875q-0.8125 0.5 -1.84375 0.5q-1.75 0 -2.859375 -1.296875q-1.109375 -1.296875 -1.109375 -4.265625q0 -3.328125 1.21875 -4.828125q1.078125 -1.3125 2.890625 -1.3125q1.34375 0 2.203125 0.765625q0.875 0.75 1.046875 2.078125zm-5.75 4.9375q0 0.734375 0.3125 1.40625q0.3125 0.65625 0.859375 1.0q0.5625 0.34375 1.171875 0.34375q0.890625 0 1.53125 -0.71875q0.640625 -0.71875 0.640625 -1.953125q0 -1.1875 -0.640625 -1.859375q-0.625 -0.6875 -1.59375 -0.6875q-0.953125 0 -1.625 0.6875q-0.65625 0.671875 -0.65625 1.78125z" fill-rule="nonzero"/></g></svg>