<svg version="1.1" viewBox="0.0 0.0 960.0 540.0" fill="none" stroke="none" stroke-linecap="square" stroke-miterlimit="10" xmlns:xlink="http://www.w3.org/1999/xlink" xmlns="http://www.w3.org/2000/svg"><clipPath id="ge4058d3127_0_0.0"><path d="m0 0l960.0 0l0 540.0l-960.0 0l0 -540.0z" clip-rule="nonzero"/></clipPath><g clip-path="url(#ge4058d3127_0_0.0)"><path fill="#ffffff" d="m0 0l960.0 0l0 540.0l-960.0 0z" fill-rule="evenodd"/><path fill="#d9d9d9" d="m244.28331 129.00923l0 0c0 -13.3592 10.639404 -24.188972 23.763779 -24.188972l0 0c6.3025513 0 12.346954 2.5484695 16.803528 7.0847855c4.4565735 4.536316 6.960266 10.688873 6.960266 17.104187l0 0c0 13.359207 -10.639435 24.18898 -23.763794 24.18898l0 0c-13.124374 0 -23.763779 -10.829773 -23.763779 -24.18898z" fill-rule="evenodd"/><path stroke="#666666" stroke-width="2.0" stroke-linejoin="round" stroke-linecap="butt" d="m244.28331 129.00923l0 0c0 -13.3592 10.639404 -24.188972 23.763779 -24.188972l0 0c6.3025513 0 12.346954 2.5484695 16.803528 7.0847855c4.4565735 4.536316 6.960266 10.688873 6.960266 17.104187l0 0c0 13.359207 -10.639435 24.18898 -23.763794 24.18898l0 0c-13.124374 0 -23.763779 -10.829773 -23.763779 -24.18898z" fill-rule="evenodd"/><path fill="#000000" d="m267.98422 122.52298q1.9375 0 3.03125 1.375q1.296875 1.640625 1.296875 5.4375q0 3.796875 -1.3125 5.453125q-1.078125 1.375 -3.015625 1.375q-1.953125 0 -3.15625 -1.5q-1.1875 -1.5 -1.1875 -5.34375q0 -3.78125 1.3125 -5.4375q1.078125 -1.359375 3.03125 -1.359375zm0 2.125q-0.46875 0 -0.84375 0.296875q-0.359375 0.296875 -0.5625 1.0625q-0.25 0.984375 -0.25 3.328125q0 2.359375 0.234375 3.234375q0.234375 0.875 0.59375 1.171875q0.359375 0.296875 0.828125 0.296875q0.453125 0 0.8125 -0.296875q0.375 -0.296875 0.578125 -1.0625q0.265625 -0.984375 0.265625 -3.34375q0 -2.34375 -0.25 -3.21875q-0.234375 -0.875 -0.59375 -1.171875q-0.359375 -0.296875 -0.8125 -0.296875z" fill-rule="nonzero"/><path fill="#d9d9d9" d="m431.01428 129.00923l0 0c0 -13.3592 10.639404 -24.188972 23.763763 -24.188972l0 0c6.3025513 0 12.346985 2.5484695 16.803558 7.0847855c4.4565735 4.536316 6.9602356 10.688873 6.9602356 17.104187l0 0c0 13.359207 -10.639404 24.18898 -23.763794 24.18898l0 0c-13.124359 0 -23.763763 -10.829773 -23.763763 -24.18898z" fill-rule="evenodd"/><path stroke="#666666" stroke-width="2.0" stroke-linejoin="round" stroke-linecap="butt" d="m431.01428 129.00923l0 0c0 -13.3592 10.639404 -24.188972 23.763763 -24.188972l0 0c6.3025513 0 12.346985 2.5484695 16.803558 7.0847855c4.4565735 4.536316 6.9602356 10.688873 6.9602356 17.104187l0 0c0 13.359207 -10.639404 24.18898 -23.763794 24.18898l0 0c-13.124359 0 -23.763763 -10.829773 -23.763763 -24.18898z" fill-rule="evenodd"/><path fill="#000000" d="m456.93396 135.92923l-2.5625 0l0 -9.640625q-1.40625 1.3125 -3.3125 1.9375l0 -2.328125q1.015625 -0.328125 2.1875 -1.234375q1.171875 -0.921875 1.609375 -2.140625l2.078125 0l0 13.40625z" fill-rule="nonzero"/><path fill="#d9d9d9" d="m163.96442 248.79138l0 0c0 -13.359192 10.639404 -24.188965 23.763779 -24.188965l0 0c6.302536 0 12.346954 2.548462 16.803528 7.084778c4.4565735 4.536316 6.960251 10.688873 6.960251 17.104187l0 0c0 13.359222 -10.639404 24.188995 -23.763779 24.188995l0 0c-13.124374 0 -23.763779 -10.829773 -23.763779 -24.188995z" fill-rule="evenodd"/><path stroke="#666666" stroke-width="2.0" stroke-linejoin="round" stroke-linecap="butt" d="m163.96442 248.79138l0 0c0 -13.359192 10.639404 -24.188965 23.763779 -24.188965l0 0c6.302536 0 12.346954 2.548462 16.803528 7.084778c4.4565735 4.536316 6.960251 10.688873 6.960251 17.104187l0 0c0 13.359222 -10.639404 24.188995 -23.763779 24.188995l0 0c-13.124374 0 -23.763779 -10.829773 -23.763779 -24.188995z" fill-rule="evenodd"/><path fill="#000000" d="m188.35283 255.71138l0 -2.6875l-5.46875 0l0 -2.234375l5.796875 -8.484375l2.15625 0l0 8.46875l1.65625 0l0 2.25l-1.65625 0l0 2.6875l-2.484375 0zm0 -4.9375l0 -4.5625l-3.078125 4.5625l3.078125 0z" fill-rule="nonzero"/><path fill="#d9d9d9" d="m337.65338 248.7927l0 0c0 -13.359192 10.639404 -24.188965 23.763794 -24.188965l0 0c6.3025513 0 12.346954 2.548462 16.803528 7.084778c4.4565735 4.536316 6.9602356 10.688873 6.9602356 17.104187l0 0c0 13.359222 -10.639404 24.188995 -23.763763 24.188995l0 0c-13.12439 0 -23.763794 -10.829773 -23.763794 -24.188995z" fill-rule="evenodd"/><path stroke="#666666" stroke-width="2.0" stroke-linejoin="round" stroke-linecap="butt" d="m337.65338 248.7927l0 0c0 -13.359192 10.639404 -24.188965 23.763794 -24.188965l0 0c6.3025513 0 12.346954 2.548462 16.803528 7.084778c4.4565735 4.536316 6.9602356 10.688873 6.9602356 17.104187l0 0c0 13.359222 -10.639404 24.188995 -23.763763 24.188995l0 0c-13.12439 0 -23.763794 -10.829773 -23.763794 -24.188995z" fill-rule="evenodd"/><path fill="#000000" d="m356.93243 252.16582l2.46875 -0.296875q0.125 0.953125 0.640625 1.453125q0.53125 0.5 1.265625 0.5q0.78125 0 1.328125 -0.59375q0.546875 -0.609375 0.546875 -1.640625q0 -0.953125 -0.53125 -1.515625q-0.515625 -0.578125 -1.25 -0.578125q-0.5 0 -1.1875 0.203125l0.28125 -2.09375q1.046875 0.03125 1.59375 -0.4375q0.546875 -0.484375 0.546875 -1.28125q0 -0.671875 -0.40625 -1.078125q-0.390625 -0.40625 -1.0625 -0.40625q-0.65625 0 -1.125 0.46875q-0.453125 0.453125 -0.5625 1.328125l-2.359375 -0.40625q0.25 -1.203125 0.734375 -1.921875q0.5 -0.734375 1.390625 -1.140625q0.890625 -0.421875 2.0 -0.421875q1.875 0 3.015625 1.203125q0.9375 0.984375 0.9375 2.21875q0 1.765625 -1.921875 2.8125q1.15625 0.234375 1.84375 1.09375q0.6875 0.859375 0.6875 2.0625q0 1.765625 -1.296875 3.015625q-1.28125 1.234375 -3.1875 1.234375q-1.8125 0 -3.015625 -1.046875q-1.1875 -1.046875 -1.375 -2.734375z" fill-rule="nonzero"/><path fill="#d9d9d9" d="m640.13635 129.00923l0 0c0 -13.3592 10.639404 -24.188972 23.763733 -24.188972l0 0c6.3025513 0 12.346985 2.5484695 16.803528 7.0847855c4.456604 4.536316 6.960266 10.688873 6.960266 17.104187l0 0c0 13.359207 -10.639404 24.18898 -23.763794 24.18898l0 0c-13.124329 0 -23.763733 -10.829773 -23.763733 -24.18898z" fill-rule="evenodd"/><path stroke="#666666" stroke-width="2.0" stroke-linejoin="round" stroke-linecap="butt" d="m640.13635 129.00923l0 0c0 -13.3592 10.639404 -24.188972 23.763733 -24.188972l0 0c6.3025513 0 12.346985 2.5484695 16.803528 7.0847855c4.456604 4.536316 6.960266 10.688873 6.960266 17.104187l0 0c0 13.359207 -10.639404 24.18898 -23.763794 24.18898l0 0c-13.124329 0 -23.763733 -10.829773 -23.763733 -24.18898z" fill-rule="evenodd"/><path fill="#000000" d="m668.1497 133.55423l0 2.375l-8.96875 0q0.140625 -1.34375 0.859375 -2.546875q0.734375 -1.21875 2.890625 -3.203125q1.734375 -1.625 2.125 -2.1875q0.53125 -0.796875 0.53125 -1.578125q0 -0.84375 -0.46875 -1.296875q-0.453125 -0.46875 -1.265625 -0.46875q-0.796875 0 -1.28125 0.484375q-0.46875 0.46875 -0.546875 1.59375l-2.546875 -0.25q0.234375 -2.109375 1.421875 -3.03125q1.203125 -0.921875 3.015625 -0.921875q1.96875 0 3.09375 1.0625q1.140625 1.0625 1.140625 2.65625q0 0.890625 -0.328125 1.71875q-0.3125 0.8125 -1.015625 1.703125q-0.46875 0.59375 -1.6875 1.703125q-1.203125 1.109375 -1.53125 1.484375q-0.3125 0.359375 -0.515625 0.703125l5.078125 0z" fill-rule="nonzero"/><path fill="#d9d9d9" d="m432.41586 368.57486l0 0c0 -13.359222 10.639404 -24.188995 23.763763 -24.188995l0 0c6.3025513 0 12.346954 2.5484924 16.803528 7.0848083c4.4565735 4.536316 6.960266 10.688873 6.960266 17.104187l0 0c0 13.359192 -10.639404 24.188965 -23.763794 24.188965l0 0c-13.124359 0 -23.763763 -10.829773 -23.763763 -24.188965z" fill-rule="evenodd"/><path stroke="#666666" stroke-width="2.0" stroke-linejoin="round" stroke-linecap="butt" d="m432.41586 368.57486l0 0c0 -13.359222 10.639404 -24.188995 23.763763 -24.188995l0 0c6.3025513 0 12.346954 2.5484924 16.803528 7.0848083c4.4565735 4.536316 6.960266 10.688873 6.960266 17.104187l0 0c0 13.359192 -10.639404 24.188965 -23.763794 24.188965l0 0c-13.124359 0 -23.763763 -10.829773 -23.763763 -24.188965z" fill-rule="evenodd"/><path fill="#000000" d="m460.46054 365.41672l-2.484375 0.265625q-0.09375 -0.765625 -0.484375 -1.125q-0.375 -0.375 -0.984375 -0.375q-0.8125 0 -1.375 0.734375q-0.546875 0.734375 -0.703125 3.03125q0.96875 -1.125 2.390625 -1.125q1.59375 0 2.734375 1.21875q1.140625 1.21875 1.140625 3.15625q0 2.046875 -1.203125 3.296875q-1.1875 1.234375 -3.078125 1.234375q-2.03125 0 -3.328125 -1.578125q-1.296875 -1.578125 -1.296875 -5.15625q0 -3.671875 1.34375 -5.28125q1.359375 -1.625 3.53125 -1.625q1.53125 0 2.515625 0.859375q1.0 0.84375 1.28125 2.46875zm-5.8125 5.578125q0 1.25 0.578125 1.9375q0.578125 0.671875 1.3125 0.671875q0.71875 0 1.1875 -0.546875q0.46875 -0.5625 0.46875 -1.828125q0 -1.3125 -0.515625 -1.90625q-0.5 -0.609375 -1.265625 -0.609375q-0.734375 0 -1.25 0.578125q-0.515625 0.578125 -0.515625 1.703125z" fill-rule="nonzero"/><path fill="#d9d9d9" d="m527.1757 248.79161l0 0c0 -13.359207 10.639404 -24.18898 23.763733 -24.18898l0 0c6.3025513 0 12.346985 2.5484772 16.803528 7.084793c4.456604 4.536316 6.960266 10.688873 6.960266 17.104187l0 0c0 13.359207 -10.639404 24.18898 -23.763794 24.18898l0 0c-13.124329 0 -23.763733 -10.829773 -23.763733 -24.18898z" fill-rule="evenodd"/><path stroke="#666666" stroke-width="2.0" stroke-linejoin="round" stroke-linecap="butt" d="m527.1757 248.79161l0 0c0 -13.359207 10.639404 -24.18898 23.763733 -24.18898l0 0c6.3025513 0 12.346985 2.5484772 16.803528 7.084793c4.456604 4.536316 6.960266 10.688873 6.960266 17.104187l0 0c0 13.359207 -10.639404 24.18898 -23.763794 24.18898l0 0c-13.124329 0 -23.763733 -10.829773 -23.763733 -24.18898z" fill-rule="evenodd"/><path fill="#000000" d="m546.5485 244.91473l0 -2.375l8.75 0l0 1.859375q-1.078125 1.0625 -2.203125 3.0625q-1.125 1.984375 -1.71875 4.234375q-0.578125 2.25 -0.5625 4.015625l-2.46875 0q0.0625 -2.765625 1.140625 -5.640625q1.078125 -2.890625 2.875 -5.15625l-5.8125 0z" fill-rule="nonzero"/><path fill="#d9d9d9" d="m239.32268 368.57355l0 0c0 -13.359222 10.639404 -24.188995 23.763779 -24.188995l0 0c6.3025513 0 12.346954 2.5484924 16.803528 7.0848083c4.4565735 4.536316 6.960266 10.688873 6.960266 17.104187l0 0c0 13.359192 -10.639404 24.188965 -23.763794 24.188965l0 0c-13.124374 0 -23.763779 -10.829773 -23.763779 -24.188965z" fill-rule="evenodd"/><path stroke="#666666" stroke-width="2.0" stroke-linejoin="round" stroke-linecap="butt" d="m239.32268 368.57355l0 0c0 -13.359222 10.639404 -24.188995 23.763779 -24.188995l0 0c6.3025513 0 12.346954 2.5484924 16.803528 7.0848083c4.4565735 4.536316 6.960266 10.688873 6.960266 17.104187l0 0c0 13.359192 -10.639404 24.188965 -23.763794 24.188965l0 0c-13.124374 0 -23.763779 -10.829773 -23.763779 -24.188965z" fill-rule="evenodd"/><path fill="#000000" d="m258.7267 372.05603l2.546875 -0.265625q0.109375 0.875 0.640625 1.375q0.546875 0.5 1.25 0.5q0.796875 0 1.34375 -0.640625q0.5625 -0.65625 0.5625 -1.96875q0 -1.234375 -0.546875 -1.84375q-0.546875 -0.609375 -1.4375 -0.609375q-1.09375 0 -1.96875 0.96875l-2.078125 -0.296875l1.3125 -6.953125l6.765625 0l0 2.390625l-4.828125 0l-0.40625 2.265625q0.859375 -0.421875 1.75 -0.421875q1.703125 0 2.890625 1.25q1.1875 1.234375 1.1875 3.203125q0 1.65625 -0.953125 2.9375q-1.3125 1.78125 -3.625 1.78125q-1.84375 0 -3.015625 -1.0q-1.15625 -1.0 -1.390625 -2.671875z" fill-rule="nonzero"/><path fill="#d9d9d9" d="m640.1311 368.57355l0 0c0 -13.359222 10.639404 -24.188995 23.763733 -24.188995l0 0c6.3025513 0 12.346985 2.5484924 16.803528 7.0848083c4.456604 4.536316 6.960266 10.688873 6.960266 17.104187l0 0c0 13.359192 -10.639404 24.188965 -23.763794 24.188965l0 0c-13.124329 0 -23.763733 -10.829773 -23.763733 -24.188965z" fill-rule="evenodd"/><path stroke="#666666" stroke-width="2.0" stroke-linejoin="round" stroke-linecap="butt" d="m640.1311 368.57355l0 0c0 -13.359222 10.639404 -24.188995 23.763733 -24.188995l0 0c6.3025513 0 12.346985 2.5484924 16.803528 7.0848083c4.456604 4.536316 6.960266 10.688873 6.960266 17.104187l0 0c0 13.359192 -10.639404 24.188965 -23.763794 24.188965l0 0c-13.124329 0 -23.763733 -10.829773 -23.763733 -24.188965z" fill-rule="evenodd"/><path fill="#000000" d="m661.69135 368.2904q-0.984375 -0.421875 -1.4375 -1.15625q-0.453125 -0.734375 -0.453125 -1.609375q0 -1.484375 1.03125 -2.453125q1.046875 -0.984375 2.96875 -0.984375q1.90625 0 2.953125 0.984375q1.0625 0.96875 1.0625 2.453125q0 0.9375 -0.484375 1.65625q-0.484375 0.71875 -1.359375 1.109375q1.109375 0.4375 1.6875 1.296875q0.578125 0.859375 0.578125 1.984375q0 1.84375 -1.1875 3.0q-1.171875 1.15625 -3.125 1.15625q-1.828125 0 -3.03125 -0.953125q-1.4375 -1.125 -1.4375 -3.09375q0 -1.09375 0.53125 -2.0q0.546875 -0.90625 1.703125 -1.390625zm0.53125 -2.578125q0 0.765625 0.421875 1.203125q0.4375 0.421875 1.15625 0.421875q0.734375 0 1.171875 -0.4375q0.4375 -0.4375 0.4375 -1.203125q0 -0.71875 -0.4375 -1.140625q-0.421875 -0.4375 -1.140625 -0.4375q-0.734375 0 -1.171875 0.4375q-0.4375 0.4375 -0.4375 1.15625zm-0.234375 5.71875q0 1.0625 0.53125 1.65625q0.546875 0.578125 1.359375 0.578125q0.796875 0 1.3125 -0.5625q0.515625 -0.5625 0.515625 -1.640625q0 -0.9375 -0.53125 -1.5q-0.515625 -0.578125 -1.328125 -0.578125q-0.9375 0 -1.40625 0.65625q-0.453125 0.640625 -0.453125 1.390625z" fill-rule="nonzero"/><path fill="#d9d9d9" d="m732.5615 248.79138l0 0c0 -13.359192 10.639404 -24.188965 23.763794 -24.188965l0 0c6.3025513 0 12.346924 2.548462 16.803528 7.084778c4.456543 4.536316 6.960266 10.688873 6.960266 17.104187l0 0c0 13.359222 -10.639404 24.188995 -23.763794 24.188995l0 0c-13.12439 0 -23.763794 -10.829773 -23.763794 -24.188995z" fill-rule="evenodd"/><path stroke="#666666" stroke-width="2.0" stroke-linejoin="round" stroke-linecap="butt" d="m732.5615 248.79138l0 0c0 -13.359192 10.639404 -24.188965 23.763794 -24.188965l0 0c6.3025513 0 12.346924 2.548462 16.803528 7.084778c4.456543 4.536316 6.960266 10.688873 6.960266 17.104187l0 0c0 13.359222 -10.639404 24.188995 -23.763794 24.188995l0 0c-13.12439 0 -23.763794 -10.829773 -23.763794 -24.188995z" fill-rule="evenodd"/><path fill="#000000" d="m751.9812 252.61763l2.484375 -0.265625q0.09375 0.75 0.46875 1.125q0.390625 0.359375 1.015625 0.359375q0.796875 0 1.34375 -0.71875q0.5625 -0.734375 0.71875 -3.03125q-0.96875 1.109375 -2.421875 1.109375q-1.578125 0 -2.71875 -1.203125q-1.140625 -1.21875 -1.140625 -3.171875q0 -2.03125 1.203125 -3.265625q1.203125 -1.25 3.078125 -1.25q2.03125 0 3.328125 1.578125q1.3125 1.5625 1.3125 5.15625q0 3.671875 -1.359375 5.296875q-1.359375 1.609375 -3.53125 1.609375q-1.578125 0 -2.546875 -0.828125q-0.953125 -0.84375 -1.234375 -2.5zm5.796875 -5.59375q0 -1.234375 -0.578125 -1.90625q-0.5625 -0.6875 -1.3125 -0.6875q-0.703125 0 -1.171875 0.5625q-0.46875 0.546875 -0.46875 1.828125q0 1.296875 0.5 1.90625q0.515625 0.59375 1.28125 0.59375q0.734375 0 1.234375 -0.578125q0.515625 -0.578125 0.515625 -1.71875z" fill-rule="nonzero"/><path fill="#000000" fill-opacity="0.0" d="m291.81088 129.00923l139.21259 0" fill-rule="evenodd"/><path stroke="#595959" stroke-width="1.0" stroke-linejoin="round" stroke-linecap="butt" d="m291.81088 129.00923l139.21259 0" fill-rule="evenodd"/><path fill="#000000" fill-opacity="0.0" d="m478.54184 129.00923l161.6063 0" fill-rule="evenodd"/><path stroke="#cc0000" stroke-width="2.0" stroke-linejoin="round" stroke-linecap="butt" d="m478.54184 129.00923l161.6063 0" fill-rule="evenodd"/><path fill="#000000" fill-opacity="0.0" d="m251.24356 146.11342l-63.527557 78.48819" fill-rule="evenodd"/><path stroke="#cc0000" stroke-width="2.0" stroke-linejoin="round" stroke-linecap="butt" d="m251.24356 146.11342l-63.527557 78.48819" fill-rule="evenodd"/><path fill="#000000" fill-opacity="0.0" d="m187.7282 272.98038l58.551178 78.48819" fill-rule="evenodd"/><path stroke="#cc0000" stroke-width="2.0" stroke-linejoin="round" stroke-linecap="butt" d="m187.7282 272.98038l58.551178 78.48819" fill-rule="evenodd"/><path fill="#000000" fill-opacity="0.0" d="m286.85025 368.57355l145.5748 0" fill-rule="evenodd"/><path stroke="#595959" stroke-width="1.0" stroke-linejoin="round" stroke-linecap="butt" d="m286.85025 368.57355l145.5748 0" fill-rule="evenodd"/><path fill="#000000" fill-opacity="0.0" d="m479.94342 368.57486l160.18896 0" fill-rule="evenodd"/><path stroke="#595959" stroke-width="1.0" stroke-linejoin="round" stroke-linecap="butt" d="m479.94342 368.57486l160.18896 0" fill-rule="evenodd"/><path fill="#000000" fill-opacity="0.0" d="m680.69836 351.46936l75.62207 -78.48819" fill-rule="evenodd"/><path stroke="#cc0000" stroke-width="2.0" stroke-linejoin="round" stroke-linecap="butt" d="m680.69836 351.46936l75.62207 -78.48819" fill-rule="evenodd"/><path fill="#000000" fill-opacity="0.0" d="m756.3253 224.60242l-75.62207 -78.48819" fill-rule="evenodd"/><path stroke="#595959" stroke-width="1.0" stroke-linejoin="round" stroke-linecap="butt" d="m756.3253 224.60242l-75.62207 -78.48819" fill-rule="evenodd"/><path fill="#000000" fill-opacity="0.0" d="m437.97452 146.11342l-59.748016 85.574814" fill-rule="evenodd"/><path stroke="#cc0000" stroke-width="2.0" stroke-linejoin="round" stroke-linecap="butt" d="m437.97452 146.11342l-59.748016 85.574814" fill-rule="evenodd"/><path fill="#000000" fill-opacity="0.0" d="m284.85062 146.11342l59.748047 85.574814" fill-rule="evenodd"/><path stroke="#595959" stroke-width="1.0" stroke-linejoin="round" stroke-linecap="butt" d="m284.85062 146.11342l59.748047 85.574814" fill-rule="evenodd"/><path fill="#000000" fill-opacity="0.0" d="m337.65338 248.7927l-126.17322 0" fill-rule="evenodd"/><path stroke="#cc0000" stroke-width="2.0" stroke-linejoin="round" stroke-linecap="butt" d="m337.65338 248.7927l-126.17322 0" fill-rule="evenodd"/><path fill="#000000" fill-opacity="0.0" d="m344.61365 265.89688l-64.72443 85.5748" fill-rule="evenodd"/><path stroke="#595959" stroke-width="1.0" stroke-linejoin="round" stroke-linecap="butt" d="m344.61365 265.89688l-64.72443 85.5748" fill-rule="evenodd"/><path fill="#000000" fill-opacity="0.0" d="m385.18094 248.7927l141.98428 0" fill-rule="evenodd"/><path stroke="#cc0000" stroke-width="2.0" stroke-linejoin="round" stroke-linecap="butt" d="m385.18094 248.7927l141.98428 0" fill-rule="evenodd"/><path fill="#000000" fill-opacity="0.0" d="m378.2207 265.89688l61.165344 85.5748" fill-rule="evenodd"/><path stroke="#595959" stroke-width="1.0" stroke-linejoin="round" stroke-linecap="butt" d="m378.2207 265.89688l61.165344 85.5748" fill-rule="evenodd"/><path fill="#000000" fill-opacity="0.0" d="m534.1359 265.89578l-61.165344 85.57483" fill-rule="evenodd"/><path stroke="#cc0000" stroke-width="2.0" stroke-linejoin="round" stroke-linecap="butt" d="m534.1359 265.89578l-61.165344 85.57483" fill-rule="evenodd"/><path fill="#000000" fill-opacity="0.0" d="m567.743 265.89578l79.33862 85.57483" fill-rule="evenodd"/><path stroke="#595959" stroke-width="1.0" stroke-linejoin="round" stroke-linecap="butt" d="m567.743 265.89578l79.33862 85.57483" fill-rule="evenodd"/><path fill="#000000" fill-opacity="0.0" d="m567.743 231.68742l79.33862 -85.574814" fill-rule="evenodd"/><path stroke="#595959" stroke-width="1.0" stroke-linejoin="round" stroke-linecap="butt" d="m567.743 231.68742l79.33862 -85.574814" fill-rule="evenodd"/><path fill="#000000" fill-opacity="0.0" d="m663.89484 344.38455l0 -191.18109" fill-rule="evenodd"/><path stroke="#cc0000" stroke-width="2.0" stroke-linejoin="round" stroke-linecap="butt" d="m663.89484 344.38455l0 -191.18109" fill-rule="evenodd"/><path fill="#000000" fill-opacity="0.0" d="m196.92168 156.65796l25.889755 0l0 38.771652l-25.889755 0z" fill-rule="evenodd"/><path fill="#000000" d="m211.89043 181.01796l-1.40625 0l0 -8.96875q-0.515625 0.484375 -1.34375 0.96875q-0.8125 0.484375 -1.46875 0.734375l0 -1.359375q1.171875 -0.5625 2.046875 -1.34375q0.890625 -0.796875 1.265625 -1.53125l0.90625 0l0 11.5z" fill-rule="nonzero"/><path fill="#000000" fill-opacity="0.0" d="m354.51035 98.319786l25.88977 0l0 38.77166l-25.88977 0z" fill-rule="evenodd"/><path fill="#000000" d="m364.18222 119.67979l1.46875 -0.125q0.171875 1.078125 0.765625 1.625q0.59375 0.53125 1.4375 0.53125q1.015625 0 1.71875 -0.765625q0.703125 -0.765625 0.703125 -2.03125q0 -1.203125 -0.671875 -1.890625q-0.671875 -0.703125 -1.765625 -0.703125q-0.6875 0 -1.234375 0.3125q-0.546875 0.3125 -0.859375 0.796875l-1.3125 -0.171875l1.109375 -5.875l5.6875 0l0 1.34375l-4.5625 0l-0.625 3.078125q1.03125 -0.71875 2.171875 -0.71875q1.5 0 2.53125 1.046875q1.03125 1.03125 1.03125 2.65625q0 1.5625 -0.90625 2.6875q-1.109375 1.40625 -3.015625 1.40625q-1.5625 0 -2.546875 -0.875q-0.984375 -0.890625 -1.125 -2.328125z" fill-rule="nonzero"/><path fill="#000000" fill-opacity="0.0" d="m537.99475 97.05407l25.88977 0l0 38.77166l-25.88977 0z" fill-rule="evenodd"/><path fill="#000000" d="m552.1666 121.41407l0 -2.75l-4.96875 0l0 -1.28125l5.234375 -7.421875l1.140625 0l0 7.421875l1.546875 0l0 1.28125l-1.546875 0l0 2.75l-1.40625 0zm0 -4.03125l0 -5.171875l-3.578125 5.171875l3.578125 0z" fill-rule="nonzero"/><path fill="#000000" fill-opacity="0.0" d="m383.19553 163.46443l25.88977 0l0 38.771652l-25.88977 0z" fill-rule="evenodd"/><path fill="#000000" d="m400.25803 186.46506l0 1.359375l-7.578125 0q-0.015625 -0.515625 0.171875 -0.984375q0.28125 -0.765625 0.921875 -1.515625q0.640625 -0.75 1.84375 -1.734375q1.859375 -1.53125 2.515625 -2.421875q0.65625 -0.90625 0.65625 -1.703125q0 -0.828125 -0.59375 -1.40625q-0.59375 -0.578125 -1.5625 -0.578125q-1.015625 0 -1.625 0.609375q-0.609375 0.609375 -0.609375 1.6875l-1.453125 -0.140625q0.15625 -1.625 1.125 -2.46875q0.96875 -0.84375 2.59375 -0.84375q1.65625 0 2.609375 0.921875q0.96875 0.90625 0.96875 2.25q0 0.6875 -0.28125 1.359375q-0.28125 0.65625 -0.9375 1.390625q-0.65625 0.734375 -2.171875 2.015625q-1.265625 1.0625 -1.625 1.453125q-0.359375 0.375 -0.59375 0.75l5.625 0z" fill-rule="nonzero"/><path fill="#000000" fill-opacity="0.0" d="m579.2336 166.05304l25.88977 0l0 38.771652l-25.88977 0z" fill-rule="evenodd"/><path fill="#000000" d="m593.40546 190.41304l0 -2.75l-4.96875 0l0 -1.28125l5.234375 -7.421875l1.140625 0l0 7.421875l1.546875 0l0 1.28125l-1.546875 0l0 2.75l-1.40625 0zm0 -4.03125l0 -5.171875l-3.578125 5.171875l3.578125 0z" fill-rule="nonzero"/><path fill="#000000" fill-opacity="0.0" d="m311.4403 163.24237l25.88977 0l0 38.771652l-25.88977 0z" fill-rule="evenodd"/><path fill="#000000" d="m325.61218 187.60237l0 -2.75l-4.96875 0l0 -1.28125l5.234375 -7.421875l1.140625 0l0 7.421875l1.546875 0l0 1.28125l-1.546875 0l0 2.75l-1.40625 0zm0 -4.03125l0 -5.171875l-3.578125 5.171875l3.578125 0z" fill-rule="nonzero"/><path fill="#000000" fill-opacity="0.0" d="m717.1896 161.25218l25.88977 0l0 38.771652l-25.88977 0z" fill-rule="evenodd"/><path fill="#000000" d="m734.2521 184.2528l0 1.359375l-7.578125 0q-0.015625 -0.515625 0.171875 -0.984375q0.28125 -0.765625 0.921875 -1.515625q0.640625 -0.75 1.84375 -1.734375q1.859375 -1.53125 2.515625 -2.421875q0.65625 -0.90625 0.65625 -1.703125q0 -0.828125 -0.59375 -1.40625q-0.59375 -0.578125 -1.5625 -0.578125q-1.015625 0 -1.625 0.609375q-0.609375 0.609375 -0.609375 1.6875l-1.453125 -0.140625q0.15625 -1.625 1.125 -2.46875q0.96875 -0.84375 2.59375 -0.84375q1.65625 0 2.609375 0.921875q0.96875 0.90625 0.96875 2.25q0 0.6875 -0.28125 1.359375q-0.28125 0.65625 -0.9375 1.390625q-0.65625 0.734375 -2.171875 2.015625q-1.265625 1.0625 -1.625 1.453125q-0.359375 0.375 -0.59375 0.75l5.625 0z" fill-rule="nonzero"/><path fill="#000000" fill-opacity="0.0" d="m714.83044 300.43433l25.88977 0l0 38.771637l-25.88977 0z" fill-rule="evenodd"/><path fill="#000000" d="m724.5023 319.13806q0 -2.03125 0.40625 -3.265625q0.421875 -1.234375 1.25 -1.90625q0.828125 -0.671875 2.078125 -0.671875q0.921875 0 1.609375 0.375q0.703125 0.359375 1.15625 1.0625q0.453125 0.703125 0.703125 1.703125q0.265625 1.0 0.265625 2.703125q0 2.015625 -0.421875 3.265625q-0.40625 1.234375 -1.234375 1.921875q-0.828125 0.671875 -2.078125 0.671875q-1.65625 0 -2.609375 -1.203125q-1.125 -1.421875 -1.125 -4.65625zm1.4375 0q0 2.828125 0.65625 3.765625q0.671875 0.921875 1.640625 0.921875q0.96875 0 1.625 -0.9375q0.65625 -0.9375 0.65625 -3.75q0 -2.828125 -0.65625 -3.75q-0.65625 -0.9375 -1.640625 -0.9375q-0.96875 0 -1.546875 0.828125q-0.734375 1.046875 -0.734375 3.859375z" fill-rule="nonzero"/><path fill="#000000" fill-opacity="0.0" d="m448.41345 217.78511l25.88977 0l0 38.771652l-25.88977 0z" fill-rule="evenodd"/><path fill="#000000" d="m465.47595 240.78574l0 1.359375l-7.578125 0q-0.015625 -0.515625 0.171875 -0.984375q0.28125 -0.765625 0.921875 -1.515625q0.640625 -0.75 1.84375 -1.734375q1.859375 -1.53125 2.515625 -2.421875q0.65625 -0.90625 0.65625 -1.703125q0 -0.828125 -0.59375 -1.40625q-0.59375 -0.578125 -1.5625 -0.578125q-1.015625 0 -1.625 0.609375q-0.609375 0.609375 -0.609375 1.6875l-1.453125 -0.140625q0.15625 -1.625 1.125 -2.46875q0.96875 -0.84375 2.59375 -0.84375q1.65625 0 2.609375 0.921875q0.96875 0.90625 0.96875 2.25q0 0.6875 -0.28125 1.359375q-0.28125 0.65625 -0.9375 1.390625q-0.65625 0.734375 -2.171875 2.015625q-1.265625 1.0625 -1.625 1.453125q-0.359375 0.375 -0.59375 0.75l5.625 0z" fill-rule="nonzero"/><path fill="#000000" fill-opacity="0.0" d="m660.9025 230.96739l25.88977 0l0 38.771652l-25.88977 0z" fill-rule="evenodd"/><path fill="#000000" d="m675.8713 255.3274l-1.40625 0l0 -8.96875q-0.515625 0.484375 -1.34375 0.96875q-0.8125 0.484375 -1.46875 0.734375l0 -1.359375q1.171875 -0.5625 2.046875 -1.34375q0.890625 -0.796875 1.265625 -1.53125l0.90625 0l0 11.5z" fill-rule="nonzero"/><path fill="#000000" fill-opacity="0.0" d="m604.3844 285.53958l25.88971 0l0 38.771637l-25.88971 0z" fill-rule="evenodd"/><path fill="#000000" d="m621.35315 301.24332l-1.40625 0.109375q-0.1875 -0.828125 -0.53125 -1.203125q-0.5625 -0.59375 -1.40625 -0.59375q-0.671875 0 -1.171875 0.375q-0.671875 0.484375 -1.0625 1.421875q-0.375 0.921875 -0.390625 2.640625q0.515625 -0.78125 1.25 -1.15625q0.734375 -0.375 1.53125 -0.375q1.40625 0 2.390625 1.046875q1.0 1.03125 1.0 2.671875q0 1.078125 -0.46875 2.0q-0.46875 0.921875 -1.28125 1.421875q-0.8125 0.5 -1.84375 0.5q-1.75 0 -2.859375 -1.296875q-1.109375 -1.296875 -1.109375 -4.265625q0 -3.328125 1.21875 -4.828125q1.078125 -1.3125 2.890625 -1.3125q1.34375 0 2.203125 0.765625q0.875 0.75 1.046875 2.078125zm-5.75 4.9375q0 0.734375 0.3125 1.40625q0.3125 0.65625 0.859375 1.0q0.5625 0.34375 1.171875 0.34375q0.890625 0 1.53125 -0.71875q0.640625 -0.71875 0.640625 -1.953125q0 -1.1875 -0.640625 -1.859375q-0.625 -0.6875 -1.59375 -0.6875q-0.953125 0 -1.625 0.6875q-0.65625 0.671875 -0.65625 1.78125z" fill-rule="nonzero"/><path fill="#000000" fill-opacity="0.0" d="m546.62787 361.1083l25.88977 0l0 38.771667l-25.88977 0z" fill-rule="evenodd"/><path fill="#000000" d="m560.79974 385.46832l0 -2.75l-4.96875 0l0 -1.28125l5.234375 -7.421875l1.140625 0l0 7.421875l1.546875 0l0 1.28125l-1.546875 0l0 2.75l-1.40625 0zm0 -4.03125l0 -5.171875l-3.578125 5.171875l3.578125 0z" fill-rule="nonzero"/><path fill="#000000" fill-opacity="0.0" d="m499.87546 294.47775l25.889801 0l0 38.771667l-25.889801 0z" fill-rule="evenodd"/><path fill="#000000" d="m514.84424 318.83777l-1.40625 0l0 -8.96875q-0.515625 0.484375 -1.34375 0.96875q-0.8125305 0.484375 -1.4687805 0.734375l0 -1.359375q1.171875 -0.5625 2.0469055 -1.34375q0.890625 -0.796875 1.265625 -1.53125l0.90625 0l0 11.5z" fill-rule="nonzero"/><path fill="#000000" fill-opacity="0.0" d="m411.8643 295.42166l39.149597 0l0 38.771667l-39.149597 0z" fill-rule="evenodd"/><path fill="#000000" d="m426.83304 319.78168l-1.40625 0l0 -8.96875q-0.515625 0.484375 -1.34375 0.96875q-0.8125 0.484375 -1.46875 0.734375l0 -1.359375q1.171875 -0.5625 2.046875 -1.34375q0.890625 -0.796875 1.265625 -1.53125l0.90625 0l0 11.5zm7.7109375 0l-1.40625 0l0 -8.96875q-0.515625 0.484375 -1.34375 0.96875q-0.8125 0.484375 -1.46875 0.734375l0 -1.359375q1.171875 -0.5625 2.046875 -1.34375q0.890625 -0.796875 1.265625 -1.53125l0.90625 0l0 11.5z" fill-rule="nonzero"/><path fill="#000000" fill-opacity="0.0" d="m352.73083 360.63055l25.88977 0l0 38.771637l-25.88977 0z" fill-rule="evenodd"/><path fill="#000000" d="m362.49646 375.0374l0 -1.359375l7.40625 0l0 1.09375q-1.09375 1.171875 -2.171875 3.109375q-1.0625 1.921875 -1.65625 3.953125q-0.421875 1.4375 -0.53125 3.15625l-1.453125 0q0.03125 -1.359375 0.53125 -3.265625q0.515625 -1.921875 1.453125 -3.6875q0.953125 -1.78125 2.03125 -3.0l-5.609375 0z" fill-rule="nonzero"/><path fill="#000000" fill-opacity="0.0" d="m306.4236 298.01974l25.88977 0l0 38.771667l-25.88977 0z" fill-rule="evenodd"/><path fill="#000000" d="m316.0955 319.37976l1.46875 -0.125q0.171875 1.078125 0.765625 1.625q0.59375 0.53125 1.4375 0.53125q1.015625 0 1.71875 -0.765625q0.703125 -0.765625 0.703125 -2.03125q0 -1.203125 -0.671875 -1.890625q-0.671875 -0.703125 -1.765625 -0.703125q-0.6875 0 -1.234375 0.3125q-0.546875 0.3125 -0.859375 0.796875l-1.3125 -0.171875l1.109375 -5.875l5.6875 0l0 1.34375l-4.5625 0l-0.625 3.078125q1.03125 -0.71875 2.171875 -0.71875q1.5 0 2.53125 1.046875q1.03125 1.03125 1.03125 2.65625q0 1.5625 -0.90625 2.6875q-1.109375 1.40625 -3.015625 1.40625q-1.5625 0 -2.546875 -0.875q-0.984375 -0.890625 -1.125 -2.328125z" fill-rule="nonzero"/><path fill="#000000" fill-opacity="0.0" d="m190.20314 298.70245l25.889755 0l0 38.771637l-25.889755 0z" fill-rule="evenodd"/><path fill="#000000" d="m205.17189 323.06244l-1.40625 0l0 -8.96875q-0.515625 0.484375 -1.34375 0.96875q-0.8125 0.484375 -1.46875 0.734375l0 -1.359375q1.171875 -0.5625 2.046875 -1.34375q0.890625 -0.796875 1.265625 -1.53125l0.90625 0l0 11.5z" fill-rule="nonzero"/><path fill="#000000" fill-opacity="0.0" d="m256.1849 216.0585l25.88977 0l0 38.771652l-25.88977 0z" fill-rule="evenodd"/><path fill="#000000" d="m273.2474 239.05913l0 1.359375l-7.578125 0q-0.015625 -0.515625 0.171875 -0.984375q0.28125 -0.765625 0.921875 -1.515625q0.640625 -0.75 1.84375 -1.734375q1.859375 -1.53125 2.515625 -2.421875q0.65625 -0.90625 0.65625 -1.703125q0 -0.828125 -0.59375 -1.40625q-0.59375 -0.578125 -1.5625 -0.578125q-1.015625 0 -1.625 0.609375q-0.609375 0.609375 -0.609375 1.6875l-1.453125 -0.140625q0.15625 -1.625 1.125 -2.46875q0.96875 -0.84375 2.59375 -0.84375q1.65625 0 2.609375 0.921875q0.96875 0.90625 0.96875 2.25q0 0.6875 -0.28125 1.359375q-0.28125 0.65625 -0.9375 1.390625q-0.65625 0.734375 -2.171875 2.015625q-1.265625 1.0625 -1.625 1.453125q-0.359375 0.375 -0.59375 0.75l5.625 0z" fill-rule="nonzero"/></g></svg>