<svg version="1.1" viewBox="0.0 0.0 960.0 540.0" fill="none" stroke="none" stroke-linecap="square" stroke-miterlimit="10" xmlns:xlink="http://www.w3.org/1999/xlink" xmlns="http://www.w3.org/2000/svg"><clipPath id="ge4058d3127_0_89.0"><path d="m0 0l960.0 0l0 540.0l-960.0 0l0 -540.0z" clip-rule="nonzero"/></clipPath><g clip-path="url(#ge4058d3127_0_89.0)"><path fill="#ffffff" d="m0 0l960.0 0l0 540.0l-960.0 0z" fill-rule="evenodd"/><path fill="#d9d9d9" d="m195.43817 261.1746l0 0c0 -13.359207 10.639404 -24.18898 23.763779 -24.18898l0 0c6.302536 0 12.346954 2.5484772 16.803528 7.084793c4.4565735 4.536316 6.960251 10.688873 6.960251 17.104187l0 0c0 13.359192 -10.639404 24.188965 -23.763779 24.188965l0 0c-13.124374 0 -23.763779 -10.829773 -23.763779 -24.188965z" fill-rule="evenodd"/><path stroke="#666666" stroke-width="2.0" stroke-linejoin="round" stroke-linecap="butt" d="m195.43817 261.1746l0 0c0 -13.359207 10.639404 -24.18898 23.763779 -24.18898l0 0c6.302536 0 12.346954 2.5484772 16.803528 7.084793c4.4565735 4.536316 6.960251 10.688873 6.960251 17.104187l0 0c0 13.359192 -10.639404 24.188965 -23.763779 24.188965l0 0c-13.124374 0 -23.763779 -10.829773 -23.763779 -24.188965z" fill-rule="evenodd"/><path fill="#000000" d="m219.13908 254.68834q1.9375 0 3.03125 1.3749847q1.296875 1.640625 1.296875 5.4375q0 3.796875 -1.3125 5.453125q-1.078125 1.375 -3.015625 1.375q-1.953125 0 -3.15625 -1.5q-1.1875 -1.5 -1.1875 -5.34375q0 -3.78125 1.3125 -5.4375q1.078125 -1.3593597 3.03125 -1.3593597zm0 2.1249847q-0.46875 0 -0.84375 0.296875q-0.359375 0.296875 -0.5625 1.0625q-0.25 0.984375 -0.25 3.328125q0 2.359375 0.234375 3.234375q0.234375 0.875 0.59375 1.171875q0.359375 0.296875 0.828125 0.296875q0.453125 0 0.8125 -0.296875q0.375 -0.296875 0.578125 -1.0625q0.265625 -0.984375 0.265625 -3.34375q0 -2.34375 -0.25 -3.21875q-0.234375 -0.875 -0.59375 -1.171875q-0.359375 -0.296875 -0.8125 -0.296875z" fill-rule="nonzero"/><path fill="#d9d9d9" d="m352.7518 119.605034l0 0c0 -13.3592 10.639404 -24.188972 23.763794 -24.188972l0 0c6.3025513 0 12.346954 2.5484695 16.803528 7.0847855c4.4565735 4.5363083 6.9602356 10.688873 6.9602356 17.104187l0 0c0 13.3592 -10.639404 24.188972 -23.763763 24.188972l0 0c-13.12439 0 -23.763794 -10.829773 -23.763794 -24.188972z" fill-rule="evenodd"/><path stroke="#666666" stroke-width="2.0" stroke-linejoin="round" stroke-linecap="butt" d="m352.7518 119.605034l0 0c0 -13.3592 10.639404 -24.188972 23.763794 -24.188972l0 0c6.3025513 0 12.346954 2.5484695 16.803528 7.0847855c4.4565735 4.5363083 6.9602356 10.688873 6.9602356 17.104187l0 0c0 13.3592 -10.639404 24.188972 -23.763763 24.188972l0 0c-13.12439 0 -23.763794 -10.829773 -23.763794 -24.188972z" fill-rule="evenodd"/><path fill="#000000" d="m378.67148 126.52503l-2.5625 0l0 -9.640625q-1.40625 1.3125 -3.3125 1.9375l0 -2.328125q1.015625 -0.328125 2.1875 -1.234375q1.171875 -0.921875 1.609375 -2.140625l2.078125 0l0 13.40625z" fill-rule="nonzero"/><path fill="#d9d9d9" d="m550.4027 119.605034l0 0c0 -13.3592 10.639404 -24.188972 23.763794 -24.188972l0 0c6.3025513 0 12.346985 2.5484695 16.803528 7.0847855c4.456604 4.5363083 6.960266 10.688873 6.960266 17.104187l0 0c0 13.3592 -10.639404 24.188972 -23.763794 24.188972l0 0c-13.12439 0 -23.763794 -10.829773 -23.763794 -24.188972z" fill-rule="evenodd"/><path stroke="#666666" stroke-width="2.0" stroke-linejoin="round" stroke-linecap="butt" d="m550.4027 119.605034l0 0c0 -13.3592 10.639404 -24.188972 23.763794 -24.188972l0 0c6.3025513 0 12.346985 2.5484695 16.803528 7.0847855c4.456604 4.5363083 6.960266 10.688873 6.960266 17.104187l0 0c0 13.3592 -10.639404 24.188972 -23.763794 24.188972l0 0c-13.12439 0 -23.763794 -10.829773 -23.763794 -24.188972z" fill-rule="evenodd"/><path fill="#000000" d="m574.79114 126.52503l0 -2.6875l-5.46875 0l0 -2.234375l5.796875 -8.484375l2.15625 0l0 8.46875l1.65625 0l0 2.25l-1.65625 0l0 2.6875l-2.484375 0zm0 -4.9375l0 -4.5625l-3.078125 4.5625l3.078125 0z" fill-rule="nonzero"/><path fill="#d9d9d9" d="m352.04184 402.74545l0 0c0 -13.359192 10.639404 -24.188965 23.763794 -24.188965l0 0c6.3025208 0 12.346954 2.548462 16.803528 7.084778c4.4565735 4.536316 6.9602356 10.688873 6.9602356 17.104187l0 0c0 13.359192 -10.639404 24.188965 -23.763763 24.188965l0 0c-13.12439 0 -23.763794 -10.829773 -23.763794 -24.188965z" fill-rule="evenodd"/><path stroke="#666666" stroke-width="2.0" stroke-linejoin="round" stroke-linecap="butt" d="m352.04184 402.74545l0 0c0 -13.359192 10.639404 -24.188965 23.763794 -24.188965l0 0c6.3025208 0 12.346954 2.548462 16.803528 7.084778c4.4565735 4.536316 6.9602356 10.688873 6.9602356 17.104187l0 0c0 13.359192 -10.639404 24.188965 -23.763763 24.188965l0 0c-13.12439 0 -23.763794 -10.829773 -23.763794 -24.188965z" fill-rule="evenodd"/><path fill="#000000" d="m371.3209 406.1186l2.46875 -0.296875q0.125 0.953125 0.640625 1.453125q0.53125 0.5 1.265625 0.5q0.78125 0 1.328125 -0.59375q0.546875 -0.609375 0.546875 -1.640625q0 -0.953125 -0.53125 -1.515625q-0.515625 -0.578125 -1.25 -0.578125q-0.5 0 -1.1875 0.203125l0.28125 -2.09375q1.046875 0.03125 1.59375 -0.4375q0.546875 -0.484375 0.546875 -1.28125q0 -0.671875 -0.40625 -1.078125q-0.390625 -0.40625 -1.0625 -0.40625q-0.65625 0 -1.125 0.46875q-0.453125 0.453125 -0.5625 1.328125l-2.359375 -0.40625q0.25 -1.203125 0.734375 -1.921875q0.5 -0.734375 1.390625 -1.140625q0.890625 -0.421875 2.0 -0.421875q1.875 0 3.015625 1.203125q0.9375 0.984375 0.9375 2.21875q0 1.765625 -1.921875 2.8125q1.15625 0.234375 1.84375 1.09375q0.6875 0.859375 0.6875 2.0625q0 1.765625 -1.296875 3.015625q-1.28125 1.234375 -3.1875 1.234375q-1.8125 0 -3.015625 -1.046875q-1.1875 -1.046875 -1.375 -2.734375z" fill-rule="nonzero"/><path fill="#d9d9d9" d="m352.7505 261.1746l0 0c0 -13.359207 10.639404 -24.18898 23.763794 -24.18898l0 0c6.3025513 0 12.346954 2.5484772 16.803528 7.084793c4.4565735 4.536316 6.9602356 10.688873 6.9602356 17.104187l0 0c0 13.359192 -10.639404 24.188965 -23.763763 24.188965l0 0c-13.12439 0 -23.763794 -10.829773 -23.763794 -24.188965z" fill-rule="evenodd"/><path stroke="#666666" stroke-width="2.0" stroke-linejoin="round" stroke-linecap="butt" d="m352.7505 261.1746l0 0c0 -13.359207 10.639404 -24.18898 23.763794 -24.18898l0 0c6.3025513 0 12.346954 2.5484772 16.803528 7.084793c4.4565735 4.536316 6.9602356 10.688873 6.9602356 17.104187l0 0c0 13.359192 -10.639404 24.188965 -23.763763 24.188965l0 0c-13.12439 0 -23.763794 -10.829773 -23.763794 -24.188965z" fill-rule="evenodd"/><path fill="#000000" d="m380.76392 265.71957l0 2.375l-8.96875 0q0.140625 -1.34375 0.859375 -2.546875q0.734375 -1.21875 2.890625 -3.203125q1.734375 -1.625 2.125 -2.1875q0.53125 -0.796875 0.53125 -1.578125q0 -0.84375 -0.46875 -1.296875q-0.453125 -0.46875 -1.265625 -0.46875q-0.796875 0 -1.28125 0.484375q-0.46875 0.46875 -0.546875 1.59375l-2.546875 -0.25q0.234375 -2.109375 1.421875 -3.0312347q1.203125 -0.921875 3.015625 -0.921875q1.96875 0 3.09375 1.0625q1.140625 1.0624847 1.140625 2.6562347q0 0.890625 -0.328125 1.71875q-0.3125 0.8125 -1.015625 1.703125q-0.46875 0.59375 -1.6875 1.703125q-1.203125 1.109375 -1.53125 1.484375q-0.3125 0.359375 -0.515625 0.703125l5.078125 0z" fill-rule="nonzero"/><path fill="#d9d9d9" d="m550.4027 402.74545l0 0c0 -13.359192 10.639404 -24.188965 23.763794 -24.188965l0 0c6.3025513 0 12.346985 2.548462 16.803528 7.084778c4.456604 4.536316 6.960266 10.688873 6.960266 17.104187l0 0c0 13.359192 -10.639404 24.188965 -23.763794 24.188965l0 0c-13.12439 0 -23.763794 -10.829773 -23.763794 -24.188965z" fill-rule="evenodd"/><path stroke="#666666" stroke-width="2.0" stroke-linejoin="round" stroke-linecap="butt" d="m550.4027 402.74545l0 0c0 -13.359192 10.639404 -24.188965 23.763794 -24.188965l0 0c6.3025513 0 12.346985 2.548462 16.803528 7.084778c4.456604 4.536316 6.960266 10.688873 6.960266 17.104187l0 0c0 13.359192 -10.639404 24.188965 -23.763794 24.188965l0 0c-13.12439 0 -23.763794 -10.829773 -23.763794 -24.188965z" fill-rule="evenodd"/><path fill="#000000" d="m578.4474 399.58734l-2.484375 0.265625q-0.09375 -0.765625 -0.484375 -1.125q-0.375 -0.375 -0.984375 -0.375q-0.8125 0 -1.375 0.734375q-0.546875 0.734375 -0.703125 3.03125q0.96875 -1.125 2.390625 -1.125q1.59375 0 2.734375 1.21875q1.140625 1.21875 1.140625 3.15625q0 2.046875 -1.203125 3.296875q-1.1875 1.234375 -3.078125 1.234375q-2.03125 0 -3.328125 -1.578125q-1.296875 -1.578125 -1.296875 -5.15625q0 -3.671875 1.34375 -5.28125q1.359375 -1.625 3.53125 -1.625q1.53125 0 2.515625 0.859375q1.0 0.84375 1.28125 2.46875zm-5.8125 5.578125q0 1.25 0.578125 1.9375q0.578125 0.671875 1.3125 0.671875q0.71875 0 1.1875 -0.546875q0.46875 -0.5625 0.46875 -1.828125q0 -1.3125 -0.515625 -1.90625q-0.5 -0.609375 -1.265625 -0.609375q-0.734375 0 -1.25 0.578125q-0.515625 0.578125 -0.515625 1.703125z" fill-rule="nonzero"/><path fill="#d9d9d9" d="m707.60614 261.1748l0 0c0 -13.359192 10.639404 -24.188965 23.763794 -24.188965l0 0c6.3025513 0 12.346924 2.548462 16.803528 7.084778c4.456543 4.536316 6.960266 10.688873 6.960266 17.104187l0 0c0 13.359222 -10.639404 24.188995 -23.763794 24.188995l0 0c-13.12439 0 -23.763794 -10.829773 -23.763794 -24.188995z" fill-rule="evenodd"/><path stroke="#666666" stroke-width="2.0" stroke-linejoin="round" stroke-linecap="butt" d="m707.60614 261.1748l0 0c0 -13.359192 10.639404 -24.188965 23.763794 -24.188965l0 0c6.3025513 0 12.346924 2.548462 16.803528 7.084778c4.456543 4.536316 6.960266 10.688873 6.960266 17.104187l0 0c0 13.359222 -10.639404 24.188995 -23.763794 24.188995l0 0c-13.12439 0 -23.763794 -10.829773 -23.763794 -24.188995z" fill-rule="evenodd"/><path fill="#000000" d="m726.97894 257.29794l0 -2.3750153l8.75 0l0 1.8593903q-1.078125 1.0625 -2.203125 3.0625q-1.125 1.984375 -1.71875 4.234375q-0.578125 2.25 -0.5625 4.015625l-2.46875 0q0.0625 -2.765625 1.140625 -5.640625q1.078125 -2.890625 2.875 -5.15625l-5.8125 0z" fill-rule="nonzero"/><path fill="#d9d9d9" d="m550.2991 261.1746l0 0c0 -13.359207 10.639404 -24.18898 23.763794 -24.18898l0 0c6.30249 0 12.346924 2.5484772 16.803528 7.084793c4.456543 4.536316 6.960205 10.688873 6.960205 17.104187l0 0c0 13.359192 -10.639404 24.188965 -23.763733 24.188965l0 0c-13.12439 0 -23.763794 -10.829773 -23.763794 -24.188965z" fill-rule="evenodd"/><path stroke="#666666" stroke-width="2.0" stroke-linejoin="round" stroke-linecap="butt" d="m550.2991 261.1746l0 0c0 -13.359207 10.639404 -24.18898 23.763794 -24.18898l0 0c6.30249 0 12.346924 2.5484772 16.803528 7.084793c4.456543 4.536316 6.960205 10.688873 6.960205 17.104187l0 0c0 13.359192 -10.639404 24.188965 -23.763733 24.188965l0 0c-13.12439 0 -23.763794 -10.829773 -23.763794 -24.188965z" fill-rule="evenodd"/><path fill="#000000" d="m569.7031 264.65707l2.546875 -0.265625q0.109375 0.875 0.640625 1.375q0.546875 0.5 1.25 0.5q0.796875 0 1.34375 -0.640625q0.5625 -0.65625 0.5625 -1.96875q0 -1.234375 -0.546875 -1.84375q-0.546875 -0.609375 -1.4375 -0.609375q-1.09375 0 -1.96875 0.96875l-2.078125 -0.296875l1.3125 -6.9531097l6.765625 0l0 2.3906097l-4.828125 0l-0.40625 2.265625q0.859375 -0.421875 1.75 -0.421875q1.703125 0 2.890625 1.25q1.1875 1.234375 1.1875 3.203125q0 1.65625 -0.953125 2.9375q-1.3125 1.78125 -3.625 1.78125q-1.84375 0 -3.015625 -1.0q-1.15625 -1.0 -1.390625 -2.671875z" fill-rule="nonzero"/><path fill="#000000" fill-opacity="0.0" d="m236.00548 244.0704l123.71654 -107.37009" fill-rule="evenodd"/><path stroke="#595959" stroke-width="1.0" stroke-linejoin="round" stroke-linecap="butt" d="m236.00548 244.0704l123.71654 -107.37009" fill-rule="evenodd"/><path fill="#000000" fill-opacity="0.0" d="m376.5156 143.794l0 93.19685" fill-rule="evenodd"/><path stroke="#595959" stroke-width="1.0" stroke-linejoin="round" stroke-linecap="butt" d="m376.5156 143.794l0 93.19685" fill-rule="evenodd"/><path fill="#000000" fill-opacity="0.0" d="m400.27936 119.605034l150.11023 0" fill-rule="evenodd"/><path stroke="#cc0000" stroke-width="2.0" stroke-linejoin="round" stroke-linecap="butt" d="m400.27936 119.605034l150.11023 0" fill-rule="evenodd"/><path fill="#000000" fill-opacity="0.0" d="m574.1665 143.794l-0.09448242 93.19685" fill-rule="evenodd"/><path stroke="#cc0000" stroke-width="2.0" stroke-linejoin="round" stroke-linecap="butt" d="m574.1665 143.794l-0.09448242 93.19685" fill-rule="evenodd"/><path fill="#000000" fill-opacity="0.0" d="m574.06287 285.36356l0.09448242 93.19687" fill-rule="evenodd"/><path stroke="#cc0000" stroke-width="2.0" stroke-linejoin="round" stroke-linecap="butt" d="m574.06287 285.36356l0.09448242 93.19687" fill-rule="evenodd"/><path fill="#000000" fill-opacity="0.0" d="m376.51428 285.36356l-0.72442627 93.19687" fill-rule="evenodd"/><path stroke="#cc0000" stroke-width="2.0" stroke-linejoin="round" stroke-linecap="butt" d="m376.51428 285.36356l-0.72442627 93.19687" fill-rule="evenodd"/><path fill="#000000" fill-opacity="0.0" d="m236.00548 278.27878l122.99211 107.37009" fill-rule="evenodd"/><path stroke="#595959" stroke-width="1.0" stroke-linejoin="round" stroke-linecap="butt" d="m236.00548 278.27878l122.99211 107.37009" fill-rule="evenodd"/><path fill="#000000" fill-opacity="0.0" d="m714.5664 244.07062l-123.590576 -107.37007" fill-rule="evenodd"/><path stroke="#cc0000" stroke-width="2.0" stroke-linejoin="round" stroke-linecap="butt" d="m714.5664 244.07062l-123.590576 -107.37007" fill-rule="evenodd"/><path fill="#000000" fill-opacity="0.0" d="m400.27805 261.1746l150.01578 0" fill-rule="evenodd"/><path stroke="#595959" stroke-width="1.0" stroke-linejoin="round" stroke-linecap="butt" d="m400.27805 261.1746l150.01578 0" fill-rule="evenodd"/><path fill="#000000" fill-opacity="0.0" d="m399.5694 402.74545l150.83466 0" fill-rule="evenodd"/><path stroke="#595959" stroke-width="1.0" stroke-linejoin="round" stroke-linecap="butt" d="m399.5694 402.74545l150.83466 0" fill-rule="evenodd"/><path fill="#000000" fill-opacity="0.0" d="m714.5664 278.279l-123.590576 107.37009" fill-rule="evenodd"/><path stroke="#595959" stroke-width="1.0" stroke-linejoin="round" stroke-linecap="butt" d="m714.5664 278.279l-123.590576 107.37009" fill-rule="evenodd"/><path fill="#000000" fill-opacity="0.0" d="m707.60614 261.1748l-109.763794 0" fill-rule="evenodd"/><path stroke="#595959" stroke-width="1.0" stroke-linejoin="round" stroke-linecap="butt" d="m707.60614 261.1748l-109.763794 0" fill-rule="evenodd"/><path fill="#000000" fill-opacity="0.0" d="m466.71274 88.60401l25.88977 0l0 38.771652l-25.88977 0z" fill-rule="evenodd"/><path fill="#000000" d="m476.3846 107.30776q0 -2.03125 0.40625 -3.265625q0.421875 -1.234375 1.25 -1.90625q0.828125 -0.671875 2.078125 -0.671875q0.921875 0 1.609375 0.375q0.703125 0.359375 1.15625 1.0625q0.453125 0.703125 0.703125 1.703125q0.265625 1.0 0.265625 2.703125q0 2.015625 -0.421875 3.265625q-0.40625 1.234375 -1.234375 1.921875q-0.828125 0.671875 -2.078125 0.671875q-1.65625 0 -2.609375 -1.203125q-1.125 -1.421875 -1.125 -4.65625zm1.4375 0q0 2.828125 0.65625 3.765625q0.671875 0.921875 1.640625 0.921875q0.96875 0 1.625 -0.9375q0.65625 -0.9375 0.65625 -3.75q0 -2.828125 -0.65625 -3.75q-0.65625 -0.9375 -1.640625 -0.9375q-0.96875 0 -1.546875 0.828125q-0.734375 1.046875 -0.734375 3.859375z" fill-rule="nonzero"/><path fill="#000000" fill-opacity="0.0" d="m375.78873 171.00511l25.88974 0l0 38.771652l-25.88974 0z" fill-rule="evenodd"/><path fill="#000000" d="m385.4606 192.33386l1.40625 -0.1875q0.25 1.203125 0.828125 1.734375q0.578125 0.515625 1.421875 0.515625q0.984375 0 1.671875 -0.6875q0.6875 -0.6875 0.6875 -1.703125q0 -0.96875 -0.640625 -1.59375q-0.625 -0.625 -1.609375 -0.625q-0.390625 0 -0.984375 0.15625l0.15625 -1.234375q0.140625 0.015625 0.21875 0.015625q0.90625 0 1.625 -0.46875q0.71875 -0.46875 0.71875 -1.453125q0 -0.765625 -0.53125 -1.265625q-0.515625 -0.515625 -1.34375 -0.515625q-0.828125 0 -1.375 0.515625q-0.546875 0.515625 -0.703125 1.546875l-1.40625 -0.25q0.265625 -1.421875 1.171875 -2.1875q0.921875 -0.78125 2.28125 -0.78125q0.9375 0 1.71875 0.40625q0.796875 0.390625 1.203125 1.09375q0.421875 0.6875 0.421875 1.46875q0 0.75 -0.40625 1.359375q-0.390625 0.609375 -1.171875 0.96875q1.015625 0.234375 1.578125 0.96875q0.5625 0.734375 0.5625 1.84375q0 1.5 -1.09375 2.546875q-1.09375 1.046875 -2.765625 1.046875q-1.5 0 -2.5 -0.890625q-1.0 -0.90625 -1.140625 -2.34375z" fill-rule="nonzero"/><path fill="#000000" fill-opacity="0.0" d="m272.4116 323.2016l25.88977 0l0 38.771667l-25.88977 0z" fill-rule="evenodd"/><path fill="#000000" d="m286.58347 347.5616l0 -2.75l-4.96875 0l0 -1.28125l5.234375 -7.421875l1.140625 0l0 7.421875l1.546875 0l0 1.28125l-1.546875 0l0 2.75l-1.40625 0zm0 -4.03125l0 -5.171875l-3.578125 5.171875l3.578125 0z" fill-rule="nonzero"/><path fill="#000000" fill-opacity="0.0" d="m242.96573 261.1746l109.79526 0" fill-rule="evenodd"/><path stroke="#cc0000" stroke-width="2.0" stroke-linejoin="round" stroke-linecap="butt" d="m242.96573 261.1746l109.79526 0" fill-rule="evenodd"/><path fill="#000000" fill-opacity="0.0" d="m557.2593 278.27878l-164.66138 107.37009" fill-rule="evenodd"/><path stroke="#cc0000" stroke-width="2.0" stroke-linejoin="round" stroke-linecap="butt" d="m557.2593 278.27878l-164.66138 107.37009" fill-rule="evenodd"/><path fill="#000000" fill-opacity="0.0" d="m272.00473 157.60823l37.66928 0l0 38.771652l-37.66928 0z" fill-rule="evenodd"/><path fill="#000000" d="m286.97348 181.96823l-1.40625 0l0 -8.96875q-0.515625 0.484375 -1.34375 0.96875q-0.8125 0.484375 -1.46875 0.734375l0 -1.359375q1.171875 -0.5625 2.046875 -1.34375q0.890625 -0.796875 1.265625 -1.53125l0.90625 0l0 11.5zm3.6015625 -5.65625q0 -2.03125 0.40625 -3.265625q0.421875 -1.234375 1.25 -1.90625q0.828125 -0.671875 2.078125 -0.671875q0.921875 0 1.609375 0.375q0.703125 0.359375 1.15625 1.0625q0.453125 0.703125 0.703125 1.703125q0.265625 1.0 0.265625 2.703125q0 2.015625 -0.421875 3.265625q-0.40625 1.234375 -1.234375 1.921875q-0.828125 0.671875 -2.078125 0.671875q-1.65625 0 -2.609375 -1.203125q-1.125 -1.421875 -1.125 -4.65625zm1.4375 0q0 2.828125 0.65625 3.765625q0.671875 0.921875 1.640625 0.921875q0.96875 0 1.625 -0.9375q0.65625 -0.9375 0.65625 -3.75q0 -2.828125 -0.65625 -3.75q-0.65625 -0.9375 -1.640625 -0.9375q-0.96875 0 -1.546875 0.828125q-0.734375 1.046875 -0.734375 3.859375z" fill-rule="nonzero"/><path fill="#000000" fill-opacity="0.0" d="m293.98233 228.31807l25.88974 0l0 38.771652l-25.88974 0z" fill-rule="evenodd"/><path fill="#000000" d="m308.95108 252.67807l-1.40625 0l0 -8.96875q-0.515625 0.484375 -1.34375 0.96875q-0.8125 0.484375 -1.46875 0.734375l0 -1.359375q1.171875 -0.5625 2.046875 -1.34375q0.890625 -0.796875 1.265625 -1.53125l0.90625 0l0 11.5z" fill-rule="nonzero"/><path fill="#000000" fill-opacity="0.0" d="m374.0621 315.16458l25.88977 0l0 38.771667l-25.88977 0z" fill-rule="evenodd"/><path fill="#000000" d="m391.1246 338.16522l0 1.359375l-7.578125 0q-0.015625 -0.515625 0.171875 -0.984375q0.28125 -0.765625 0.921875 -1.515625q0.640625 -0.75 1.84375 -1.734375q1.859375 -1.53125 2.515625 -2.421875q0.65625 -0.90625 0.65625 -1.703125q0 -0.828125 -0.59375 -1.40625q-0.59375 -0.578125 -1.5625 -0.578125q-1.015625 0 -1.625 0.609375q-0.609375 0.609375 -0.609375 1.6875l-1.453125 -0.140625q0.15625 -1.625 1.125 -2.46875q0.96875 -0.84375 2.59375 -0.84375q1.65625 0 2.609375 0.921875q0.96875 0.90625 0.96875 2.25q0 0.6875 -0.28125 1.359375q-0.28125 0.65625 -0.9375 1.390625q-0.65625 0.734375 -2.171875 2.015625q-1.265625 1.0625 -1.625 1.453125q-0.359375 0.375 -0.59375 0.75l5.625 0z" fill-rule="nonzero"/><path fill="#000000" fill-opacity="0.0" d="m465.79712 228.45262l25.88977 0l0 38.771652l-25.88977 0z" fill-rule="evenodd"/><path fill="#000000" d="m477.62524 246.59387q-0.875 -0.3125 -1.296875 -0.90625q-0.421875 -0.59375 -0.421875 -1.421875q0 -1.25 0.890625 -2.09375q0.90625 -0.859375 2.40625 -0.859375q1.5 0 2.40625 0.875q0.921875 0.859375 0.921875 2.109375q0 0.796875 -0.421875 1.390625q-0.421875 0.59375 -1.265625 0.90625q1.046875 0.34375 1.59375 1.109375q0.5625 0.765625 0.5625 1.828125q0 1.46875 -1.046875 2.484375q-1.03125 1.0 -2.734375 1.0q-1.6875 0 -2.734375 -1.0q-1.03125 -1.015625 -1.03125 -2.515625q0 -1.125 0.5625 -1.875q0.5625 -0.75 1.609375 -1.03125zm-0.28125 -2.375q0 0.8125 0.515625 1.328125q0.53125 0.515625 1.375 0.515625q0.8125 0 1.328125 -0.515625q0.515625 -0.515625 0.515625 -1.25q0 -0.78125 -0.53125 -1.296875q-0.53125 -0.53125 -1.328125 -0.53125q-0.8125 0 -1.34375 0.515625q-0.53125 0.515625 -0.53125 1.234375zm-0.453125 5.28125q0 0.609375 0.28125 1.171875q0.296875 0.5625 0.859375 0.875q0.5625 0.296875 1.203125 0.296875q1.015625 0 1.671875 -0.640625q0.65625 -0.65625 0.65625 -1.65625q0 -1.015625 -0.6875 -1.671875q-0.671875 -0.671875 -1.6875 -0.671875q-0.984375 0 -1.640625 0.65625q-0.65625 0.65625 -0.65625 1.640625z" fill-rule="nonzero"/><path fill="#000000" fill-opacity="0.0" d="m466.5348 292.27295l25.88977 0l0 38.771667l-25.88977 0z" fill-rule="evenodd"/><path fill="#000000" d="m483.5973 315.2736l0 1.359375l-7.578125 0q-0.015625 -0.515625 0.171875 -0.984375q0.28125 -0.765625 0.921875 -1.515625q0.640625 -0.75 1.84375 -1.734375q1.859375 -1.53125 2.515625 -2.421875q0.65625 -0.90625 0.65625 -1.703125q0 -0.828125 -0.59375 -1.40625q-0.59375 -0.578125 -1.5625 -0.578125q-1.015625 0 -1.625 0.609375q-0.609375 0.609375 -0.609375 1.6875l-1.453125 -0.140625q0.15625 -1.625 1.125 -2.46875q0.96875 -0.84375 2.59375 -0.84375q1.65625 0 2.609375 0.921875q0.96875 0.90625 0.96875 2.25q0 0.6875 -0.28125 1.359375q-0.28125 0.65625 -0.9375 1.390625q-0.65625 0.734375 -2.171875 2.015625q-1.265625 1.0625 -1.625 1.453125q-0.359375 0.375 -0.59375 0.75l5.625 0z" fill-rule="nonzero"/><path fill="#000000" fill-opacity="0.0" d="m467.8579 371.6333l25.88977 0l0 38.771637l-25.88977 0z" fill-rule="evenodd"/><path fill="#000000" d="m477.62354 386.04016l0 -1.359375l7.40625 0l0 1.09375q-1.09375 1.171875 -2.171875 3.109375q-1.0625 1.921875 -1.65625 3.953125q-0.421875 1.4375 -0.53125 3.15625l-1.453125 0q0.03125 -1.359375 0.53125 -3.265625q0.515625 -1.921875 1.453125 -3.6875q0.953125 -1.78125 2.03125 -3.0l-5.609375 0z" fill-rule="nonzero"/><path fill="#000000" fill-opacity="0.0" d="m549.13104 313.4381l25.88977 0l0 38.771667l-25.88977 0z" fill-rule="evenodd"/><path fill="#000000" d="m566.0998 329.14188l-1.40625 0.109375q-0.1875 -0.828125 -0.53125 -1.203125q-0.5625 -0.59375 -1.40625 -0.59375q-0.671875 0 -1.171875 0.375q-0.671875 0.484375 -1.0625 1.421875q-0.375 0.921875 -0.390625 2.640625q0.515625 -0.78125 1.25 -1.15625q0.734375 -0.375 1.53125 -0.375q1.40625 0 2.390625 1.046875q1.0 1.03125 1.0 2.671875q0 1.078125 -0.46875 2.0q-0.46875 0.921875 -1.28125 1.421875q-0.8125 0.5 -1.84375 0.5q-1.75 0 -2.859375 -1.296875q-1.109375 -1.296875 -1.109375 -4.265625q0 -3.328125 1.21875 -4.828125q1.078125 -1.3125 2.890625 -1.3125q1.34375 0 2.203125 0.765625q0.875 0.75 1.046875 2.078125zm-5.75 4.9375q0 0.734375 0.3125 1.40625q0.3125 0.65625 0.859375 1.0q0.5625 0.34375 1.171875 0.34375q0.890625 0 1.53125 -0.71875q0.640625 -0.71875 0.640625 -1.953125q0 -1.1875 -0.640625 -1.859375q-0.625 -0.6875 -1.59375 -0.6875q-0.953125 0 -1.625 0.6875q-0.65625 0.671875 -0.65625 1.78125z" fill-rule="nonzero"/><path fill="#000000" fill-opacity="0.0" d="m548.2677 171.00525l25.88977 0l0 38.771652l-25.88977 0z" fill-rule="evenodd"/><path fill="#000000" d="m563.23645 195.36525l-1.40625 0l0 -8.96875q-0.515625 0.484375 -1.34375 0.96875q-0.8125 0.484375 -1.46875 0.734375l0 -1.359375q1.171875 -0.5625 2.046875 -1.34375q0.890625 -0.796875 1.265625 -1.53125l0.90625 0l0 11.5z" fill-rule="nonzero"/><path fill="#000000" fill-opacity="0.0" d="m651.4613 159.37712l25.88977 0l0 38.771652l-25.88977 0z" fill-rule="evenodd"/><path fill="#000000" d="m663.2894 177.51837q-0.875 -0.3125 -1.296875 -0.90625q-0.421875 -0.59375 -0.421875 -1.421875q0 -1.25 0.890625 -2.09375q0.90625 -0.859375 2.40625 -0.859375q1.5 0 2.40625 0.875q0.921875 0.859375 0.921875 2.109375q0 0.796875 -0.421875 1.390625q-0.421875 0.59375 -1.265625 0.90625q1.046875 0.34375 1.59375 1.109375q0.5625 0.765625 0.5625 1.828125q0 1.46875 -1.046875 2.484375q-1.03125 1.0 -2.734375 1.0q-1.6875 0 -2.734375 -1.0q-1.03125 -1.015625 -1.03125 -2.515625q0 -1.125 0.5625 -1.875q0.5625 -0.75 1.609375 -1.03125zm-0.28125 -2.375q0 0.8125 0.515625 1.328125q0.53125 0.515625 1.375 0.515625q0.8125 0 1.328125 -0.515625q0.515625 -0.515625 0.515625 -1.25q0 -0.78125 -0.53125 -1.296875q-0.53125 -0.53125 -1.328125 -0.53125q-0.8125 0 -1.34375 0.515625q-0.53125 0.515625 -0.53125 1.234375zm-0.453125 5.28125q0 0.609375 0.28125 1.171875q0.296875 0.5625 0.859375 0.875q0.5625 0.296875 1.203125 0.296875q1.015625 0 1.671875 -0.640625q0.65625 -0.65625 0.65625 -1.65625q0 -1.015625 -0.6875 -1.671875q-0.671875 -0.671875 -1.6875 -0.671875q-0.984375 0 -1.640625 0.65625q-0.65625 0.65625 -0.65625 1.640625z" fill-rule="nonzero"/><path fill="#000000" fill-opacity="0.0" d="m648.4686 320.7497l37.66931 0l0 38.771637l-37.66931 0z" fill-rule="evenodd"/><path fill="#000000" d="m663.4374 345.10968l-1.40625 0l0 -8.96875q-0.515625 0.484375 -1.34375 0.96875q-0.8125 0.484375 -1.46875 0.734375l0 -1.359375q1.171875 -0.5625 2.046875 -1.34375q0.890625 -0.796875 1.265625 -1.53125l0.90625 0l0 11.5zm10.9921875 -1.359375l0 1.359375l-7.578125 0q-0.015625 -0.515625 0.171875 -0.984375q0.28125 -0.765625 0.921875 -1.515625q0.640625 -0.75 1.84375 -1.734375q1.859375 -1.53125 2.515625 -2.421875q0.65625 -0.90625 0.65625 -1.703125q0 -0.828125 -0.59375 -1.40625q-0.59375 -0.578125 -1.5625 -0.578125q-1.015625 0 -1.625 0.609375q-0.609375 0.609375 -0.609375 1.6875l-1.453125 -0.140625q0.15625 -1.625 1.125 -2.46875q0.96875 -0.84375 2.59375 -0.84375q1.65625 0 2.609375 0.921875q0.96875 0.90625 0.96875 2.25q0 0.6875 -0.28125 1.359375q-0.28125 0.65625 -0.9375 1.390625q-0.65625 0.734375 -2.171875 2.015625q-1.265625 1.0625 -1.625 1.453125q-0.359375 0.375 -0.59375 0.75l5.625 0z" fill-rule="nonzero"/><path fill="#000000" fill-opacity="0.0" d="m635.0153 230.40945l25.88977 0l0 38.771637l-25.88977 0z" fill-rule="evenodd"/><path fill="#000000" d="m644.8903 252.1132l1.359375 -0.125q0.171875 0.953125 0.65625 1.390625q0.484375 0.421875 1.234375 0.421875q0.65625 0 1.140625 -0.296875q0.484375 -0.296875 0.796875 -0.78125q0.3125 -0.5 0.515625 -1.34375q0.21875 -0.84375 0.21875 -1.71875q0 -0.09375 0 -0.28125q-0.421875 0.671875 -1.15625 1.09375q-0.734375 0.40625 -1.578125 0.40625q-1.421875 0 -2.40625 -1.03125q-0.984375 -1.03125 -0.984375 -2.71875q0 -1.734375 1.015625 -2.796875q1.03125 -1.0625 2.578125 -1.0625q1.125 0 2.046875 0.609375q0.921875 0.59375 1.40625 1.703125q0.484375 1.109375 0.484375 3.21875q0 2.203125 -0.484375 3.5q-0.46875 1.296875 -1.421875 1.984375q-0.9375 0.6875 -2.203125 0.6875q-1.34375 0 -2.203125 -0.75q-0.84375 -0.75 -1.015625 -2.109375zm5.765625 -5.046875q0 -1.21875 -0.65625 -1.921875q-0.640625 -0.71875 -1.546875 -0.71875q-0.9375 0 -1.640625 0.765625q-0.6875 0.765625 -0.6875 1.984375q0 1.09375 0.65625 1.78125q0.671875 0.6875 1.640625 0.6875q0.96875 0 1.59375 -0.6875q0.640625 -0.6875 0.640625 -1.890625z" fill-rule="nonzero"/></g></svg>